<svg width="16" height="16" viewBox="0 0 16 16" fill="none" xmlns="http://www.w3.org/2000/svg">
<path d="M10.5455 4.40909V11.25C10.5455 11.9733 10.2773 12.667 9.79991 13.1785C9.32254 13.6899 8.6751 13.9773 8 13.9773C7.3249 13.9773 6.67746 13.6899 6.20009 13.1785C5.72273 12.667 5.45455 11.9733 5.45455 11.25V3.72727C5.45455 3.2752 5.62216 2.84164 5.92051 2.52198C6.21887 2.20231 6.62352 2.02273 7.04545 2.02273C7.46739 2.02273 7.87204 2.20231 8.1704 2.52198C8.46875 2.84164 8.63636 3.2752 8.63636 3.72727V9.88636C8.63636 10.0672 8.56932 10.2406 8.44998 10.3685C8.33064 10.4963 8.16877 10.5682 8 10.5682C7.83123 10.5682 7.66936 10.4963 7.55002 10.3685C7.43068 10.2406 7.36364 10.0672 7.36364 9.88636V4.40909H6.40909V9.88636C6.40909 10.3384 6.5767 10.772 6.87506 11.0917C7.17341 11.4113 7.57806 11.5909 8 11.5909C8.42194 11.5909 8.82659 11.4113 9.12494 11.0917C9.4233 10.772 9.59091 10.3384 9.59091 9.88636V3.72727C9.59091 3.00395 9.32273 2.31026 8.84536 1.7988C8.368 1.28734 7.72055 1 7.04545 1C6.37036 1 5.72291 1.28734 5.24555 1.7988C4.76818 2.31026 4.5 3.00395 4.5 3.72727V11.25C4.5 12.2446 4.86875 13.1984 5.52513 13.9017C6.1815 14.6049 7.07174 15 8 15C8.92826 15 9.8185 14.6049 10.4749 13.9017C11.1313 13.1984 11.5 12.2446 11.5 11.25V4.40909H10.5455Z" fill="#333E47"/>
</svg>
