<svg width="16" height="16" viewBox="0 0 16 16" fill="none" xmlns="http://www.w3.org/2000/svg">
<path d="M12.5 5H10V6H12.5V5Z" fill="#333E47"/>
<path d="M12.5 7.5H10V8.5H12.5V7.5Z" fill="#333E47"/>
<path d="M12.5 10H10V11H12.5V10Z" fill="#333E47"/>
<path d="M6 5H3.5V6H6V5Z" fill="#333E47"/>
<path d="M6 7.5H3.5V8.5H6V7.5Z" fill="#333E47"/>
<path d="M6 10H3.5V11H6V10Z" fill="#333E47"/>
<path d="M14 2.5H2C1.73486 2.50026 1.48066 2.60571 1.29319 2.79319C1.10571 2.98066 1.00026 3.23486 1 3.5V12.5C1.00026 12.7651 1.10571 13.0193 1.29319 13.2068C1.48066 13.3943 1.73486 13.4997 2 13.5H14C14.2651 13.4997 14.5193 13.3943 14.7068 13.2068C14.8943 13.0193 14.9997 12.7651 15 12.5V3.5C14.9997 3.23486 14.8943 2.98066 14.7068 2.79319C14.5193 2.60571 14.2651 2.50026 14 2.5ZM2 3.5H7.5V12.5H2V3.5ZM8.5 12.5V3.5H14V12.5H8.5Z" fill="#333E47"/>
</svg>
