<svg width="16" height="16" viewBox="0 0 16 16" fill="none" xmlns="http://www.w3.org/2000/svg">
<path d="M13 6.50024V5.00017C13.0018 4.93446 12.9893 4.86913 12.9634 4.80871C12.9375 4.74828 12.8988 4.6942 12.85 4.65017L9.35 1.15017C9.30599 1.10134 9.2519 1.06263 9.19147 1.03674C9.13105 1.01084 9.06572 0.998364 9 1.00017H4C3.73502 1.00095 3.48112 1.10656 3.29375 1.29392C3.10638 1.48129 3.00078 1.73519 3 2.00017V14.0002C3 14.2654 3.10536 14.5197 3.29289 14.7073C3.48043 14.8948 3.73478 15.0002 4 15.0002H12V14.0002H4V2.00017H8V5.00017C8.00078 5.26515 8.10639 5.51905 8.29375 5.70642C8.48112 5.89379 8.73502 5.99939 9 6.00017H12V6.50024H13ZM9 5.00017V2.20017L11.8 5.00017H9Z" fill="#333E47"/>
<path d="M10.9336 9.54102C10.9334 8.77134 10.3088 8.14746 9.53906 8.14746C8.76952 8.14767 8.14572 8.77147 8.14551 9.54102C8.14551 10.3107 8.76939 10.9353 9.53906 10.9355C10.3089 10.9355 10.9336 10.3109 10.9336 9.54102ZM11.9336 9.54102C11.9336 10.0182 11.7914 10.4616 11.5508 10.835L13 12.2949L12.291 13L10.8467 11.5449C10.4706 11.7908 10.0219 11.9355 9.53906 11.9355C8.2171 11.9353 7.14551 10.863 7.14551 9.54102C7.14572 8.21918 8.21723 7.14767 9.53906 7.14746C10.8611 7.14746 11.9334 8.21906 11.9336 9.54102Z" fill="#333E47"/>
</svg>
