<svg width="16" height="16" viewBox="0 0 16 16" fill="none" xmlns="http://www.w3.org/2000/svg">
<path d="M11.5 6.50024V5.00017C11.5018 4.93446 11.4893 4.86913 11.4634 4.80871C11.4375 4.74828 11.3988 4.6942 11.35 4.65017L7.85 1.15017C7.80599 1.10134 7.7519 1.06263 7.69147 1.03674C7.63105 1.01084 7.56572 0.998364 7.5 1.00017H2.5C2.23502 1.00095 1.98112 1.10656 1.79375 1.29392C1.60638 1.48129 1.50078 1.73519 1.5 2.00017V14.0002C1.5 14.2654 1.60536 14.5197 1.79289 14.7073C1.98043 14.8948 2.23478 15.0002 2.5 15.0002H10.5V14.0002H2.5V2.00017H6.5V5.00017C6.50078 5.26515 6.60639 5.51905 6.79375 5.70642C6.98112 5.89379 7.23502 5.99939 7.5 6.00017H10.5V6.50024H11.5ZM7.5 5.00017V2.20017L10.3 5.00017H7.5Z" fill="#333E47"/>
<path d="M10.0869 9.50024C10.0869 9.2241 9.86306 9.00024 9.58691 9.00024H8.91309V11.5559H9.58691C9.86302 11.5559 10.0869 11.332 10.0869 11.0559V9.50024ZM5 9.00024V10.2229H6.17383V9.00024H5ZM14.5 8.00024V9.00024H12.8262V9.77759H14.0654V10.7776H12.8262V12.5002H11.8262V8.00024H14.5ZM11.0869 11.0559C11.0869 11.8843 10.4153 12.5559 9.58691 12.5559H7.91309V8.00024H9.58691C10.4153 8.00024 11.0869 8.67182 11.0869 9.50024V11.0559ZM7.17383 10.2229C7.17359 10.775 6.72597 11.2229 6.17383 11.2229H5V12.5002H4V8.00024H6.17383C6.72611 8.00024 7.17383 8.44796 7.17383 9.00024V10.2229Z" fill="#333E47"/>
</svg>
