<svg width="16" height="16" viewBox="0 0 16 16" fill="none" xmlns="http://www.w3.org/2000/svg">
<path fill-rule="evenodd" clip-rule="evenodd" d="M13 5H11V4H13.3132C13.6913 4 14 4.3122 14 4.6972L14 14.3053C13.9993 14.49 13.9269 14.6669 13.7986 14.7975C13.6704 14.9281 13.4966 15.0017 13.3152 15.0025H2.68475C2.50337 15.0017 2.32962 14.9281 2.20136 14.7975C2.0731 14.6669 2.00072 14.49 2 14.3053V4.6972C2.00073 4.51216 2.07339 4.33493 2.20209 4.20428C2.33079 4.07363 2.50507 4.00018 2.68681 4H5V5H3V14H8.5875H13L13 5ZM8.5185 9.59766L10.4163 7.9057L11 8.5L8.50456 10.795C8.37564 10.9263 8.2008 11 8.0185 11C7.8362 11 7.66136 10.9263 7.53244 10.795L5 8.5L5.58369 7.9057L7.5185 9.59836L7.5 1H8.5L8.5185 9.59766Z" fill="#333E47"/>
</svg>
