<svg width="16" height="16" viewBox="0 0 16 16" fill="none" xmlns="http://www.w3.org/2000/svg">
<path fill-rule="evenodd" clip-rule="evenodd" d="M8 15C4.13401 15 1 11.866 1 8C1 4.13401 4.13401 1 8 1C11.866 1 15 4.13401 15 8C15 11.866 11.866 15 8 15ZM8 2C8.82654 2 9.61404 2.16713 10.3306 2.46943C11.7701 3.07681 12.9232 4.22985 13.5306 5.66943C13.8329 6.38595 14 7.17346 14 8C14 11.3137 11.3137 14 8 14C4.68629 14 2 11.3137 2 8C2 4.68629 4.68629 2 8 2Z" fill="#333E47"/>
<path d="M10.3306 2.46943L6.24837 6.55162C6.24837 6.55162 5.50649 10.0541 5.72618 10.2738C5.94587 10.4935 9.44837 9.75163 9.44837 9.75163L13.5306 5.66943C13.3954 5.34904 13.2332 5.04284 13.0468 4.75369L9.04837 8.75163C9.04837 8.75163 6.97486 9.34351 6.83965 9.2083C6.70445 9.0731 7.24837 6.95162 7.24837 6.95162L11.2626 2.96376C10.9687 2.77294 10.657 2.60716 10.3306 2.46943Z" fill="#333E47"/>
</svg>
