<svg width="16" height="16" viewBox="0 0 16 16" fill="none" xmlns="http://www.w3.org/2000/svg">
<path d="M8.5 12H2L1.9983 4.4531L7.71535 8.41115C7.799 8.46901 7.89829 8.5 8 8.5C8.10171 8.5 8.201 8.46901 8.28465 8.41115L14 4.45435V7H15V4C14.9996 3.73489 14.8942 3.48075 14.7067 3.29329C14.5193 3.10583 14.2651 3.00036 14 3H2C1.73488 3.0003 1.4807 3.10576 1.29323 3.29323C1.10576 3.4807 1.0003 3.73488 1 4V12C1.00036 12.2651 1.10583 12.5193 1.29329 12.7067C1.48075 12.8942 1.73489 12.9996 2 13H8.5V12ZM12.8993 4L8 7.39185L3.1007 4H12.8993Z" fill="#333E47"/>
<path d="M12 13.5C13.6569 13.5 15 12.1569 15 10.5C15 8.84315 13.6569 7.5 12 7.5C10.3431 7.5 9 8.84315 9 10.5C9 12.1569 10.3431 13.5 12 13.5Z" fill="#333E47"/>
<path d="M12 13.5C13.6569 13.5 15 12.1569 15 10.5C15 8.84315 13.6569 7.5 12 7.5C10.3431 7.5 9 8.84315 9 10.5C9 12.1569 10.3431 13.5 12 13.5Z" fill="#333E47"/>
</svg>
