<svg width="16" height="16" viewBox="0 0 16 16" fill="none" xmlns="http://www.w3.org/2000/svg">
<path fill-rule="evenodd" clip-rule="evenodd" d="M9 14.5H7C6.73478 14.5 6.48043 14.3946 6.29289 14.2071C6.10536 14.0196 6 13.7652 6 13.5V9.705L2.295 5.20415C2.10721 5.01748 2.00112 4.76394 2 4.49916V2.5C2 2.23478 2.10536 1.98043 2.29289 1.79289C2.48043 1.60536 2.73478 1.5 3 1.5H13C13.2652 1.5 13.5196 1.60536 13.7071 1.79289C13.8946 1.98043 14 2.23478 14 2.5V4.49916C13.9989 4.76394 13.8928 5.01748 13.705 5.20415L10 9.705V13.5C10 13.7652 9.89464 14.0196 9.70711 14.2071C9.51957 14.3946 9.26522 14.5 9 14.5ZM3 4.49916L3 2.5H13V4.49916L9 9.295V13.5H7V9.295L3 4.49916Z" fill="#333E47"/>
</svg>
