<svg width="16" height="16" viewBox="0 0 16 16" fill="none" xmlns="http://www.w3.org/2000/svg">
<path d="M3 1.5C2.73478 1.5 2.48043 1.60536 2.29289 1.79289C2.10536 1.98043 2 2.23478 2 2.5V4.5C1.99999 4.63135 2.02585 4.76142 2.07612 4.88277C2.12638 5.00412 2.20006 5.11438 2.29295 5.20725L6 9.5V13.5C6 13.7652 6.10536 14.0196 6.29289 14.2071C6.48043 14.3946 6.73478 14.5 7 14.5H9C9.26522 14.5 9.51957 14.3946 9.70711 14.2071C9.89464 14.0196 10 13.7652 10 13.5V12.5H9V13.5H7V9.08545L3 4.5V2.5H13V4H14V2.5C14 2.23478 13.8946 1.98043 13.7071 1.79289C13.5196 1.60536 13.2652 1.5 13 1.5H3Z" fill="#333E47"/>
<path id="dot" d="M12 11.5C13.6569 11.5 15 10.1569 15 8.5C15 6.84315 13.6569 5.5 12 5.5C10.3431 5.5 9 6.84315 9 8.5C9 10.1569 10.3431 11.5 12 11.5Z" fill="#333E47"/>
</svg>
