<svg width="16" height="16" viewBox="0 0 16 16" fill="none" xmlns="http://www.w3.org/2000/svg">
<path fill-rule="evenodd" clip-rule="evenodd" d="M8 1C6.61553 1 5.26216 1.41054 4.11101 2.17971C2.95987 2.94888 2.06266 4.04213 1.53285 5.32122C1.00303 6.6003 0.86441 8.00776 1.13451 9.36563C1.4046 10.7235 2.07129 11.9708 3.05026 12.9497C4.02922 13.9287 5.2765 14.5954 6.63437 14.8655C7.99224 15.1356 9.3997 14.997 10.6788 14.4672C11.9579 13.9373 13.0511 13.0401 13.8203 11.889C14.5895 10.7378 15 9.38447 15 8C15 6.14348 14.2625 4.36301 12.9497 3.05025C11.637 1.7375 9.85652 1 8 1ZM8.75001 11.4926C8.75001 11.9069 8.41422 12.2426 8.00001 12.2426C7.58579 12.2426 7.25001 11.9069 7.25001 11.4926C7.25001 11.0784 7.58579 10.7426 8.00001 10.7426C8.41422 10.7426 8.75001 11.0784 8.75001 11.4926ZM8.00001 4.50001H8.50001C9.09674 4.50001 9.66904 4.73706 10.091 5.15902C10.513 5.58097 10.75 6.15327 10.75 6.75001C10.75 7.34674 10.513 7.91904 10.091 8.341C9.66904 8.76295 9.09674 9.00001 8.50001 9.00001V9.73991H7.50001V8.00001H8.50001C8.83153 8.00001 9.14947 7.86831 9.38389 7.63389C9.61831 7.39947 9.75001 7.08153 9.75001 6.75001C9.75001 6.41849 9.61831 6.10054 9.38389 5.86612C9.14947 5.6317 8.83153 5.50001 8.50001 5.50001H8.00001C7.66849 5.50001 7.35054 5.6317 7.11612 5.86612C6.8817 6.10054 6.75001 6.41849 6.75001 6.75001H5.75001C5.74935 6.45435 5.80709 6.16147 5.91993 5.88819C6.03277 5.61491 6.19848 5.36661 6.40755 5.15755C6.61661 4.94848 6.86491 4.78277 7.13819 4.66993C7.41147 4.55709 7.70435 4.49935 8.00001 4.50001Z" fill="#333E47"/>
</svg>
