<svg width="16" height="16" viewBox="0 0 16 16" fill="none" xmlns="http://www.w3.org/2000/svg">
<path d="M8 1C6.61553 1 5.26216 1.41054 4.11101 2.17971C2.95987 2.94888 2.06266 4.04213 1.53285 5.32122C1.00303 6.6003 0.86441 8.00776 1.13451 9.36563C1.4046 10.7235 2.07129 11.9708 3.05026 12.9497C4.02922 13.9287 5.2765 14.5954 6.63437 14.8655C7.99224 15.1356 9.3997 14.997 10.6788 14.4672C11.9579 13.9373 13.0511 13.0401 13.8203 11.889C14.5895 10.7378 15 9.38447 15 8C15 6.14348 14.2625 4.36301 12.9497 3.05025C11.637 1.7375 9.85652 1 8 1ZM8 14C6.81332 14 5.65328 13.6481 4.66658 12.9888C3.67989 12.3295 2.91085 11.3925 2.45673 10.2961C2.0026 9.19974 1.88378 7.99334 2.11529 6.82946C2.3468 5.66557 2.91825 4.59647 3.75736 3.75736C4.59648 2.91824 5.66558 2.3468 6.82946 2.11529C7.99335 1.88378 9.19975 2.0026 10.2961 2.45672C11.3925 2.91085 12.3295 3.67988 12.9888 4.66658C13.6481 5.65327 14 6.81331 14 8C14 9.5913 13.3679 11.1174 12.2426 12.2426C11.1174 13.3679 9.5913 14 8 14Z" fill="#333E47"/>
<path d="M8.00001 12.2426C8.41422 12.2426 8.75001 11.9069 8.75001 11.4926C8.75001 11.0784 8.41422 10.7426 8.00001 10.7426C7.5858 10.7426 7.25001 11.0784 7.25001 11.4926C7.25001 11.9069 7.5858 12.2426 8.00001 12.2426Z" fill="#333E47"/>
<path d="M8.50001 4.5H8.00001C7.70435 4.49934 7.41147 4.55709 7.13819 4.66993C6.86491 4.78277 6.61661 4.94848 6.40755 5.15754C6.19849 5.3666 6.03278 5.6149 5.91994 5.88818C5.8071 6.16146 5.74935 6.45434 5.75001 6.75H6.75001C6.75001 6.41848 6.88171 6.10054 7.11613 5.86612C7.35055 5.6317 7.66849 5.5 8.00001 5.5H8.50001C8.83153 5.5 9.14947 5.6317 9.38389 5.86612C9.61831 6.10054 9.75001 6.41848 9.75001 6.75C9.75001 7.08152 9.61831 7.39946 9.38389 7.63388C9.14947 7.8683 8.83153 8 8.50001 8H7.50001V9.73991H8.50001V9C9.09675 9 9.66904 8.76295 10.091 8.34099C10.513 7.91903 10.75 7.34674 10.75 6.75C10.75 6.15326 10.513 5.58097 10.091 5.15901C9.66904 4.73705 9.09675 4.5 8.50001 4.5Z" fill="#333E47"/>
</svg>
