<svg width="16" height="16" viewBox="0 0 16 16" fill="none" xmlns="http://www.w3.org/2000/svg">
<path fill-rule="evenodd" clip-rule="evenodd" d="M4.46447 2.43518C5.40215 1.51625 6.67392 1 8 1C9.32608 1 10.5979 1.51625 11.5355 2.43518C12.4732 3.3541 13 4.60044 13 5.9C13 7.566 12.15 9.029 10.8571 9.918V11.5C10.8571 11.6857 10.7819 11.8637 10.6479 11.995C10.514 12.1263 10.3323 12.2 10.1429 12.2H5.85714C5.6677 12.2 5.48602 12.1263 5.35207 11.995C5.21811 11.8637 5.14286 11.6857 5.14286 11.5V9.918C3.85 9.029 3 7.566 3 5.9C3 4.60044 3.52678 3.3541 4.46447 2.43518ZM6.06635 14.795C5.9324 14.6637 5.85714 14.4857 5.85714 14.3V13.6H10.1429V14.3C10.1429 14.4857 10.0676 14.6637 9.93365 14.795C9.79969 14.9263 9.61801 15 9.42857 15H6.57143C6.38199 15 6.20031 14.9263 6.06635 14.795ZM5.6335 3.74762C6.17156 3.2356 6.91358 2.93607 7.7857 2.89408C7.9039 2.88839 8 2.98299 8 3.09897V3.72897C8 3.84495 7.90387 3.93814 7.78577 3.94572C7.16265 3.98569 6.69607 4.20005 6.37989 4.50092C6.07145 4.79442 5.87425 5.20024 5.83061 5.69024C5.82032 5.80578 5.72549 5.9 5.60714 5.9H4.96429C4.84594 5.9 4.74929 5.80585 4.75643 5.69008C4.80291 4.93666 5.10096 4.25438 5.6335 3.74762Z" fill="#333E47"/>
</svg>
