<svg width="16" height="16" viewBox="0 0 16 16" fill="none" xmlns="http://www.w3.org/2000/svg">
<path d="M12.5 6H11V4C11 3.20435 10.6839 2.44129 10.1213 1.87868C9.55872 1.31607 8.79565 1 8 1C7.20435 1 6.44129 1.31607 5.87868 1.87868C5.31607 2.44129 5 3.20435 5 4V6H3.50002C3.2348 6 2.98044 6.10536 2.79291 6.29289C2.60537 6.48043 2.50002 6.73478 2.50002 7V14C2.50002 14.2652 2.60537 14.5196 2.79291 14.7071C2.98044 14.8946 3.2348 15 3.50002 15H12.5C12.7652 15 13.0196 14.8946 13.2071 14.7071C13.3947 14.5196 13.5 14.2652 13.5 14V7C13.5 6.73478 13.3947 6.48043 13.2071 6.29289C13.0196 6.10536 12.7652 6 12.5 6ZM6 4C6 3.46957 6.21072 2.96086 6.58579 2.58579C6.96086 2.21071 7.46957 2 8 2C8.53044 2 9.03914 2.21071 9.41422 2.58579C9.78929 2.96086 10 3.46957 10 4V6H6V4ZM12.5 14H3.50002V7H12.5V14Z" fill="#333E47"/>
<path d="M7.50001 12.8L7.5 8.2C7.5 8.08954 7.58955 8 7.70001 8H8.3C8.41046 8 8.5 8.08954 8.5 8.2L8.50001 12.8C8.50001 12.9105 8.41046 13 8.3 13H7.70001C7.58955 13 7.50001 12.9105 7.50001 12.8Z" fill="#333E47"/>
</svg>
