<svg width="16" height="16" viewBox="0 0 16 16" fill="none" xmlns="http://www.w3.org/2000/svg">
<path d="M12 9.5C13.6569 9.5 15 8.15685 15 6.5C15 4.84315 13.6569 3.5 12 3.5C10.3431 3.5 9 4.84315 9 6.5C9 8.15685 10.3431 9.5 12 9.5Z" fill="#333E47"/>
<path fill-rule="evenodd" clip-rule="evenodd" d="M13.5 10.2071V11H2.5V10.2071L3.8535 8.8535C3.94727 8.75975 3.99997 8.6326 4 8.5V6.5C3.99871 5.79744 4.18283 5.10698 4.53375 4.49834C4.88468 3.88971 5.38999 3.38444 5.99866 3.03357C6.60733 2.68269 7.2978 2.49864 8.00036 2.49999C8.70292 2.50134 9.39268 2.68804 10 3.04125V1.92335C9.52404 1.71263 9.01782 1.57833 8.5 1.5254V0.5H7.5V1.5254C6.26734 1.65082 5.12496 2.22884 4.29377 3.1477C3.46257 4.06655 3.0016 5.26098 3 6.5V8.29295L1.6465 9.6465C1.55273 9.74025 1.50003 9.8674 1.5 10V11.5C1.5 11.6326 1.55268 11.7598 1.64645 11.8536C1.74021 11.9473 1.86739 12 2 12H5.5V12.5C5.5 13.163 5.76339 13.7989 6.23223 14.2678C6.70107 14.7366 7.33696 15 8 15C8.66304 15 9.29893 14.7366 9.76777 14.2678C10.2366 13.7989 10.5 13.163 10.5 12.5V12H14C14.1326 12 14.2598 11.9473 14.3536 11.8536C14.4473 11.7598 14.5 11.6326 14.5 11.5V10.2071H13.5ZM9.06066 13.5607C9.34196 13.2794 9.5 12.8978 9.5 12.5V12H6.5V12.5C6.5 12.8978 6.65804 13.2794 6.93934 13.5607C7.22064 13.842 7.60218 14 8 14C8.39782 14 8.77936 13.842 9.06066 13.5607Z" fill="#333E47"/>
<path d="M12 9.5C13.6569 9.5 15 8.15685 15 6.5C15 4.84315 13.6569 3.5 12 3.5C10.3431 3.5 9 4.84315 9 6.5C9 8.15685 10.3431 9.5 12 9.5Z" fill="#333E47"/>
</svg>
