<svg width="16" height="16" viewBox="0 0 16 16" fill="none" xmlns="http://www.w3.org/2000/svg">
<path d="M1.66667 14.9999C1.47778 14.9999 1.31956 14.9359 1.192 14.8079C1.06444 14.6799 1.00044 14.5217 1 14.3333V7.66669C1 7.4778 1.064 7.31958 1.192 7.19202C1.32 7.06447 1.47822 7.00047 1.66667 7.00002L3.83333 7C4.02222 7 4.18067 7.064 4.30867 7.192C4.43667 7.32 4.50044 7.47822 4.5 7.66667V14.3332C4.5 14.5221 4.436 14.6806 4.308 14.8086C4.18 14.9366 4.02178 15.0004 3.83333 14.9999L1.66667 14.9999ZM12.1667 14.9996C11.9778 14.9996 11.8196 14.9356 11.692 14.8076C11.5644 14.6796 11.5004 14.5214 11.5 14.3329V1.66667C11.5 1.47778 11.564 1.31956 11.692 1.192C11.82 1.06444 11.9782 1.00044 12.1667 1L14.3333 1.00028C14.5222 1.00028 14.6807 1.06428 14.8087 1.19228C14.9367 1.32028 15.0004 1.47851 15 1.66695V14.3332C15 14.5221 14.936 14.6805 14.808 14.8085C14.68 14.9365 14.5218 15.0003 14.3333 14.9999L12.1667 14.9996ZM6.88542 15.0004C6.69653 15.0004 6.53831 14.9364 6.41075 14.8084C6.2832 14.6804 6.21919 14.5221 6.21875 14.3337V4.66752C6.21875 4.47863 6.28275 4.3204 6.41075 4.19285C6.53875 4.06529 6.69697 4.00129 6.88542 4.00085L9.11136 3.99957C9.30025 3.99957 9.45869 4.06356 9.58669 4.19156C9.71469 4.31956 9.77847 4.47779 9.77803 4.66623V14.3324C9.77803 14.5213 9.71403 14.6797 9.58603 14.8077C9.45803 14.9357 9.29981 14.9995 9.11136 14.9991L6.88542 15.0004Z" fill="#333E47"/>
</svg>
