<svg width="16" height="16" viewBox="0 0 16 16" fill="none" xmlns="http://www.w3.org/2000/svg">
<path d="M13 5V14H6V5H13ZM13 4H6C5.73478 4 5.48043 4.10536 5.29289 4.29289C5.10536 4.48043 5 4.73478 5 5V14C5 14.2652 5.10536 14.5196 5.29289 14.7071C5.48043 14.8946 5.73478 15 6 15H13C13.2652 15 13.5196 14.8946 13.7071 14.7071C13.8946 14.5196 14 14.2652 14 14V5C14 4.73478 13.8946 4.48043 13.7071 4.29289C13.5196 4.10536 13.2652 4 13 4Z" fill="#333E47"/>
<path d="M3 12H2V2C2 1.73478 2.10536 1.48043 2.29289 1.29289C2.48043 1.10536 2.73478 1 3 1H11V2H3V12Z" fill="#333E47"/>
<path d="M9.4355 7H7.5V12.1898H8.56934V10.2686V9.43452V7.83765H9.4355C9.6256 7.83765 9.78363 7.86973 9.90957 7.93389C10.0355 7.99805 10.1294 8.09072 10.1912 8.21191C10.2529 8.33311 10.2838 8.47687 10.2838 8.64321C10.2838 8.80005 10.2518 8.93787 10.1876 9.05669C10.1258 9.1755 10.0331 9.26818 9.90957 9.33472C9.786 9.40125 9.63035 9.43452 9.44263 9.43452H8.56934V10.2686H9.41864L10.4015 12.1898H11.5457V12.1399L10.4223 10.0103C10.5674 9.94496 10.6983 9.86708 10.8149 9.77671C10.986 9.64364 11.1179 9.47848 11.2106 9.28125C11.3056 9.08164 11.3532 8.84282 11.3532 8.56479C11.3532 8.22498 11.2759 7.93864 11.1215 7.70576C10.967 7.47288 10.746 7.29704 10.4585 7.17822C10.1733 7.05941 9.83234 7 9.4355 7Z" fill="#333E47"/>
</svg>
