<svg width="16" height="16" viewBox="0 0 16 16" fill="none" xmlns="http://www.w3.org/2000/svg">
<path d="M8 1C6.61553 1 5.26216 1.41054 4.11101 2.17971C2.95987 2.94888 2.06266 4.04213 1.53285 5.32122C1.00303 6.6003 0.86441 8.00776 1.13451 9.36563C1.4046 10.7235 2.07129 11.9708 3.05026 12.9497C4.02922 13.9287 5.2765 14.5954 6.63437 14.8655C7.99224 15.1356 9.3997 14.997 10.6788 14.4672C11.9579 13.9373 13.0511 13.0401 13.8203 11.889C14.5895 10.7378 15 9.38447 15 8C15 6.14348 14.2625 4.36301 12.9497 3.05025C11.637 1.7375 9.85652 1 8 1ZM8 14C6.81332 14 5.65328 13.6481 4.66658 12.9888C3.67989 12.3295 2.91085 11.3925 2.45673 10.2961C2.0026 9.19974 1.88378 7.99334 2.11529 6.82946C2.3468 5.66557 2.91825 4.59647 3.75736 3.75736C4.59648 2.91824 5.66558 2.3468 6.82946 2.11529C7.99335 1.88378 9.19975 2.0026 10.2961 2.45672C11.3925 2.91085 12.3295 3.67988 12.9888 4.66658C13.6481 5.65327 14 6.81331 14 8C14 9.5913 13.3679 11.1174 12.2426 12.2426C11.1174 13.3679 9.5913 14 8 14Z" fill="#333E47"/>
<path d="M8.5 4.5H7.5V9H8.5V4.5Z" fill="#333E47"/>
<path d="M8.01592 10.4988C7.86758 10.4988 7.72258 10.5428 7.59924 10.6252C7.4759 10.7076 7.37977 10.8247 7.32301 10.9618C7.26624 11.0988 7.25139 11.2496 7.28033 11.3951C7.30927 11.5406 7.3807 11.6742 7.48559 11.7791C7.59047 11.884 7.72411 11.9554 7.8696 11.9844C8.01508 12.0133 8.16588 11.9985 8.30293 11.9417C8.43997 11.8849 8.55711 11.7888 8.63952 11.6655C8.72193 11.5421 8.76592 11.3971 8.76592 11.2488C8.76592 11.0499 8.6869 10.8591 8.54625 10.7185C8.40559 10.5778 8.21483 10.4988 8.01592 10.4988Z" fill="#333E47"/>
</svg>
