<svg width="16" height="16" viewBox="0 0 16 16" fill="none" xmlns="http://www.w3.org/2000/svg">
<path d="M8.001 3.08571H7.999L2.32435 13.9983L2.3253 14H13.6747L13.6757 13.9983L8.001 3.08571ZM7.4375 6.5H8.5625V10H7.4375V6.5ZM8 12.4856C7.85166 12.4856 7.70666 12.4416 7.58332 12.3592C7.45999 12.2768 7.36386 12.1596 7.30709 12.0226C7.25033 11.8856 7.23547 11.7348 7.26441 11.5893C7.29335 11.4438 7.36478 11.3101 7.46967 11.2053C7.57456 11.1004 7.7082 11.0289 7.85368 11C7.99917 10.9711 8.14997 10.9859 8.28701 11.0427C8.42406 11.0994 8.54119 11.1956 8.6236 11.3189C8.70601 11.4422 8.75 11.5873 8.75 11.7356C8.75 11.9345 8.67098 12.1253 8.53033 12.2659C8.38968 12.4066 8.19891 12.4856 8 12.4856Z" fill="#333E47"/>
<path d="M14.5 15H1.5C1.4141 15 1.32965 14.9779 1.25478 14.9357C1.17992 14.8936 1.11718 14.8329 1.0726 14.7595C1.02802 14.686 1.00311 14.6024 1.00027 14.5165C0.997436 14.4307 1.01677 14.3455 1.0564 14.2693L7.5564 1.76931C7.59862 1.68812 7.66231 1.62008 7.74053 1.5726C7.81875 1.52511 7.9085 1.5 8 1.5C8.09151 1.5 8.18126 1.52511 8.25948 1.5726C8.3377 1.62008 8.40138 1.68812 8.4436 1.76931L14.9436 14.2693C14.9832 14.3455 15.0026 14.4307 14.9997 14.5165C14.9969 14.6024 14.972 14.686 14.9274 14.7595C14.8828 14.8329 14.8201 14.8936 14.7452 14.9357C14.6704 14.9779 14.5859 15 14.5 15ZM2.3253 14H13.6747L13.6757 13.9983L8.001 3.08571H7.999L2.32435 13.9983L2.3253 14Z" fill="#333E47"/>
</svg>
