<svg width="16" height="16" viewBox="0 0 16 16" fill="none" xmlns="http://www.w3.org/2000/svg">
<path d="M14.5 15H1.5C1.4141 15 1.32965 14.9779 1.25478 14.9357C1.17992 14.8936 1.11718 14.8329 1.0726 14.7595C1.02802 14.686 1.00311 14.6024 1.00027 14.5165C0.997436 14.4307 1.01677 14.3455 1.0564 14.2693L7.5564 1.76931C7.59862 1.68812 7.66231 1.62008 7.74053 1.5726C7.81875 1.52511 7.9085 1.5 8 1.5C8.09151 1.5 8.18126 1.52511 8.25948 1.5726C8.3377 1.62008 8.40138 1.68812 8.4436 1.76931L14.9436 14.2693C14.9832 14.3455 15.0026 14.4307 14.9997 14.5165C14.9969 14.6024 14.972 14.686 14.9274 14.7595C14.8828 14.8329 14.8201 14.8936 14.7452 14.9357C14.6704 14.9779 14.5859 15 14.5 15ZM2.32535 14H13.6747L13.6757 13.9984L8.001 3.08571H7.999L2.32435 13.9984L2.32535 14Z" fill="#333E47"/>
<path d="M8 11.0144C7.85166 11.0144 7.70666 11.0584 7.58332 11.1408C7.45999 11.2232 7.36386 11.3404 7.30709 11.4774C7.25033 11.6144 7.23547 11.7652 7.26441 11.9107C7.29335 12.0562 7.36478 12.1899 7.46967 12.2947C7.57456 12.3996 7.7082 12.4711 7.85368 12.5C7.99917 12.5289 8.14997 12.5141 8.28701 12.4573C8.42406 12.4006 8.54119 12.3044 8.6236 12.1811C8.70601 12.0578 8.75 11.9127 8.75 11.7644C8.75 11.5655 8.67098 11.3747 8.53033 11.2341C8.38968 11.0934 8.19891 11.0144 8 11.0144Z" fill="#333E47"/>
<path d="M8.5 6.5H7.5V10H8.5V6.5Z" fill="#333E47"/>
</svg>
