<svg width="170" height="32" viewBox="0 0 170 32" fill="none" xmlns="http://www.w3.org/2000/svg">
<g clip-path="url(#clip0_127_432)">
<path d="M0 24.6117L4.11897 0H11.8502C13.8121 0 15.2912 0.14013 16.2841 0.423809C17.2771 0.707487 18.1536 1.33295 18.9137 2.30702C19.6738 3.2811 20.0504 4.44657 20.0504 5.80344C20.0504 8.77352 18.4412 10.749 15.2261 11.7368C16.4177 12.1093 17.3695 12.7963 18.0817 13.8011C18.7904 14.806 19.1465 15.9919 19.1465 17.3625C19.1465 18.6134 18.8863 19.7515 18.3693 20.7803C17.8523 21.809 17.1915 22.5986 16.3903 23.1523C15.5891 23.7059 14.7947 24.0853 14.0072 24.2972C13.2197 24.5091 11.7646 24.6117 9.64517 24.6117H0ZM3.41022 22.1782H8.75152C10.8675 22.1782 12.3501 22.0517 13.1992 21.7988C14.0483 21.5459 14.7536 21.0093 15.3186 20.1856C15.8835 19.3619 16.1677 18.3195 16.1677 17.0583C16.1677 16.0022 15.9178 15.1477 15.4179 14.4984C14.918 13.849 14.3188 13.4286 13.6203 13.2372C12.9219 13.0458 11.6961 12.9501 9.9362 12.9501H4.9544L3.41022 22.1816V22.1782ZM5.34815 10.602H10.0081C11.8502 10.602 13.2095 10.4653 14.0894 10.1953C14.9694 9.92532 15.6849 9.41265 16.2396 8.6539C16.7943 7.89514 17.0716 6.98259 17.0716 5.91281C17.0716 5.03444 16.8422 4.29961 16.3869 3.70491C15.928 3.11021 15.3699 2.73425 14.7091 2.57703C14.0483 2.41981 12.9561 2.3412 11.4393 2.3412L6.72457 2.3788L5.34815 10.602Z" fill="#005199"/>
<path d="M29.2813 0L25.1623 24.6117H22.341L26.4634 0H29.2813Z" fill="#005199"/>
<path d="M48.3868 6.32977L45.3121 24.6116H42.8606L43.5933 20.2095C41.9703 23.4803 39.7482 25.1141 36.9338 25.1141C35.8381 25.1141 34.8965 24.8577 34.109 24.3451C33.3215 23.8324 32.7532 23.2274 32.4039 22.5268C32.0547 21.8261 31.8801 20.9477 31.8801 19.8848C31.8801 19.2012 32.0136 18.087 32.2772 16.549L34.0303 6.32635H36.8653L34.989 17.4342C34.7698 18.6954 34.6603 19.4713 34.6603 19.7618C34.6603 20.7188 34.9376 21.4638 35.4923 22.0004C36.047 22.537 36.7763 22.807 37.6802 22.807C39.2004 22.807 40.6042 21.9799 41.8916 20.3223C43.1824 18.6681 44.0795 16.3405 44.5862 13.3397L45.7503 6.32294H48.3833L48.3868 6.32977Z" fill="#005199"/>
<path d="M66.5438 20.3223C64.664 23.5214 62.0276 25.1175 58.6311 25.1175C56.3302 25.1175 54.4539 24.3656 53.0056 22.8651C51.5539 21.3647 50.828 19.3345 50.828 16.7746C50.828 13.6268 51.7319 11.0053 53.5363 8.90339C55.3441 6.80143 57.5834 5.75217 60.2575 5.75217C61.5688 5.75217 62.7946 6.03584 63.9347 6.59978C65.0715 7.16372 65.9583 8.04552 66.5917 9.24517C67.2251 10.4448 67.5401 11.9042 67.5401 13.62C67.5401 14.2318 67.4853 14.929 67.3792 15.7082H53.8856C53.8137 16.2859 53.776 16.7609 53.776 17.1335C53.776 18.8048 54.2143 20.1582 55.0942 21.2007C55.9741 22.2397 57.1657 22.7592 58.6722 22.7592C59.7062 22.7592 60.6444 22.5268 61.4798 22.0654C62.3152 21.604 63.2157 20.6504 64.1813 19.2081L66.5472 20.3257L66.5438 20.3223ZM54.2451 13.6302H64.6503C64.6743 13.2474 64.688 12.9603 64.688 12.7689C64.688 11.2959 64.2669 10.1167 63.4246 9.23833C62.5823 8.35654 61.4866 7.91564 60.1376 7.91564C58.6071 7.91564 57.3095 8.483 56.2446 9.61429C55.1798 10.7456 54.5121 12.0854 54.2485 13.6302H54.2451Z" fill="#005199"/>
<path d="M85.6389 24.6117H70.3922L74.5112 0H77.514L73.8333 21.997H86.0703L85.6355 24.6117H85.6389Z" fill="#606161"/>
<path d="M102.889 6.32977L92.8634 25.6096C91.6205 27.9987 90.4564 29.5025 89.371 30.1143C88.2856 30.7261 87.1386 31.0337 85.9334 31.0337C85.4266 31.0337 84.824 30.9927 84.1221 30.9073L84.5364 28.4567C85.1527 28.5763 85.6697 28.6378 86.0909 28.6378C88.0322 28.6378 89.5285 27.5544 90.5762 25.3909L91.2096 24.1639L87.3714 6.33319H90.2783L93.2366 20.2403L100.41 6.33319H102.892L102.889 6.32977Z" fill="#606161"/>
<path d="M117.502 24.6117H114.814L116.588 14.1019C116.793 12.8988 116.896 12.0273 116.896 11.4873C116.896 10.5439 116.601 9.73734 116.009 9.07428C115.417 8.41123 114.568 8.0797 113.458 8.0797C112.096 8.0797 110.794 8.73934 109.558 10.0586C108.322 11.3779 107.353 14.0472 106.655 18.0665L105.528 24.6151H102.909L105.98 6.35029H108.418L107.74 10.4106C109.315 7.35512 111.459 5.82736 114.167 5.82736C115.769 5.82736 117.07 6.31611 118.077 7.29702C119.084 8.27793 119.584 9.55961 119.584 11.1455C119.584 11.8666 119.481 12.8407 119.275 14.0677L117.505 24.6151L117.502 24.6117Z" fill="#606161"/>
<path d="M136.546 24.6116H133.361L129.534 17.0583L123.576 24.6116H120.731L128.318 15.1443L123.713 6.34686H126.938L130.273 12.8817L135.371 6.34686H138.1L131.382 14.7957L136.546 24.6116Z" fill="#606161"/>
<path d="M147.153 27.0349L159.4 14.8094L147.153 2.58386H157.541L169.788 14.8094L157.541 27.0349H147.153Z" fill="#005199"/>
</g>
<defs>
<clipPath id="clip0_127_432">
<rect width="170" height="32" fill="white"/>
</clipPath>
</defs>
</svg>
