<svg width="72" height="72" viewBox="0 0 72 72" fill="none" xmlns="http://www.w3.org/2000/svg">
<g clip-path="url(#clip0_797_27311)">
<path d="M72 0H0V72H72V0Z" fill="white"/>
<path d="M66.4875 57.6H39.9375L47.1375 14.625H52.3687L45.9562 53.0438H67.275L66.4875 57.6Z" fill="#5F5F60"/>
<path d="M5.23126 57.6L12.4313 14.5688H25.9313C29.3625 14.5688 31.95 14.7938 33.6938 15.3C35.4375 15.8063 36.9563 16.875 38.3063 18.6188C39.6563 20.3063 40.275 22.3875 40.275 24.75C40.275 29.925 37.4625 33.4125 31.8375 35.1C33.9188 35.775 35.6063 36.9563 36.8438 38.7C38.0813 40.4438 38.7 42.525 38.7 44.9438C38.7 47.3625 38.25 49.1063 37.35 50.9063C36.45 52.7063 35.2688 54.1125 33.9188 55.0688C32.5125 56.025 31.1063 56.7 29.7563 57.0938C28.4063 57.4875 25.8188 57.6563 22.1625 57.6563H5.23126V57.6ZM11.1938 53.3813H20.5313C24.2438 53.3813 26.8313 53.1563 28.2938 52.7063C29.7563 52.2563 30.9938 51.3 32.0063 49.8938C33.0188 48.4313 33.4688 46.6313 33.4688 44.4375C33.4688 42.2438 33.0188 41.1188 32.175 39.9375C31.275 38.8125 30.2625 38.0813 29.025 37.7438C27.7875 37.4063 25.65 37.2375 22.6125 37.2375H13.8938L11.1938 53.3813ZM14.5688 33.1313H22.725C25.9313 33.1313 28.2938 32.9063 29.8688 32.4C31.3875 31.95 32.6813 31.05 33.6375 29.7C34.5938 28.35 35.1 26.775 35.1 24.9188C35.1 23.0625 34.7063 22.1063 33.9188 21.0375C33.1313 20.025 32.1188 19.35 30.9938 19.0688C29.8125 18.7875 27.9563 18.675 25.3125 18.675H17.1C17.1 18.7313 14.6813 33.1313 14.6813 33.1313H14.5688Z" fill="#005299"/>
</g>
<defs>
<clipPath id="clip0_797_27311">
<rect width="72" height="72" fill="white"/>
</clipPath>
</defs>
</svg>
