<svg xmlns="http://www.w3.org/2000/svg" width="72" height="72" viewBox="0 0 72 72" fill="none">
  <g clip-path="url(#clip0_971_625)">
    <path d="M72 0H0V72H72V0Z" fill="#005199"/>
    <path d="M22.5 13.5H40.8937C44.8875 13.5 47.8688 14.6812 49.95 17.1C51.975 19.5187 52.9875 22.95 52.9875 27.2812C52.9875 31.6125 51.9188 35.325 49.6688 37.9688C47.5313 40.5 44.2125 41.7375 39.7687 41.7375H32.0063V58.4438H22.5562V13.5H22.5ZM31.8938 34.5938H35.6625C38.7 34.5938 40.725 33.9188 41.9062 32.625C43.0875 31.3875 43.7625 29.7 43.7625 27.675C43.7625 25.65 43.2563 24.075 42.1875 22.6125C41.1187 21.2625 39.15 20.5875 36.2812 20.5875H31.8938V34.5938Z" fill="white"/>
  </g>
  <defs>
    <clipPath id="clip0_971_625">
      <rect width="72" height="72" fill="white"/>
    </clipPath>
  </defs>
</svg>