<svg width="72" height="72" viewBox="0 0 72 72" fill="none" xmlns="http://www.w3.org/2000/svg">
<g clip-path="url(#clip0_797_27305)">
<path d="M72 0H0V72H72V0Z" fill="white"/>
<path d="M39.6 23.625L35.0437 25.3687C34.2562 23.0062 32.85 21.0937 30.8812 19.6875C28.9125 18.2812 26.6625 17.55 24.075 17.55C21.4875 17.55 18.6187 18.2812 17.1 19.8C15.5812 21.3187 14.7937 23.0625 14.7937 25.0875C14.7937 27.1125 15.1312 27.5625 15.8062 28.5187C16.4812 29.475 17.3812 30.2062 18.5062 30.6562C19.6312 31.1062 21.6 31.725 24.5812 32.4562C28.4625 33.4125 31.1625 34.3125 32.7937 35.1C34.425 35.8875 35.775 37.125 36.9562 38.8687C38.1375 40.6125 38.7 42.6375 38.7 45.0562C38.7 49.1062 37.2375 52.3687 34.2562 54.8437C31.275 57.3187 27.3375 58.5562 22.3875 58.5562C13.1062 58.5562 7.25624 54.5625 4.83749 46.575L9.50624 44.8875C11.475 51.075 15.75 54.225 22.3875 54.225C29.025 54.225 28.6875 53.3812 30.5437 51.6375C32.4 49.8937 33.3562 47.925 33.3562 45.675C33.3562 43.425 33.0187 43.0875 32.3437 42.0187C31.6687 40.95 30.7687 40.2187 29.7 39.7125C28.6312 39.2062 26.8875 38.7 24.4687 38.0812C20.7562 37.1812 17.9437 36.2812 15.9187 35.3812C13.8937 34.4812 12.3187 33.1875 11.1937 31.5C10.0687 29.8125 9.44999 27.9 9.44999 25.65C9.44999 22.2187 10.7437 19.35 13.3312 17.0437C15.9187 14.7375 19.35 13.5562 23.625 13.5562C31.5 13.5562 36.7875 16.9312 39.5437 23.6812L39.6 23.625Z" fill="#005299"/>
<path d="M66.4875 57.6H39.9375L47.1375 14.625H52.3687L45.9562 53.0438H67.2188L66.4312 57.6H66.4875Z" fill="#5F5F60"/>
</g>
<defs>
<clipPath id="clip0_797_27305">
<rect width="72" height="72" fill="white"/>
</clipPath>
</defs>
</svg>
