<svg width="118" height="35" viewBox="0 0 118 35" fill="none" xmlns="http://www.w3.org/2000/svg">
<path d="M0 0.00999451H9.02C10.99 0.00999451 12.46 0.600004 13.44 1.77C14.42 2.94 14.91 4.62 14.91 6.78C14.91 8.94 14.38 10.75 13.31 12.01C12.24 13.27 10.62 13.89 8.43 13.89H5.46V22.08H0.0100002V0L0 0.00999451ZM5.46 9.42H6.79C7.84 9.42 8.57 9.19 8.99 8.73C9.41 8.27 9.63 7.69 9.63 6.98C9.63 6.27 9.45 5.7 9.08 5.22C8.71 4.74 8.02 4.5 7.01 4.5H5.46V9.42Z" fill="#005299"/>
<path d="M25.29 18.44H19.13L18.27 22.08H12.73L19.33 0H25.25L31.85 22.08H26.17L25.29 18.44ZM24.17 13.67L22.23 5.73L20.31 13.67H24.17Z" fill="#005299"/>
<path d="M32.57 22.09V0.0100098H41.62C43.3 0.0100098 44.58 0.190018 45.47 0.550018C46.36 0.910018 47.07 1.58001 47.61 2.56001C48.15 3.54001 48.42 4.73001 48.42 6.14001C48.42 7.37001 48.21 8.42 47.8 9.31C47.38 10.2 46.81 10.92 46.09 11.47C45.63 11.82 44.99 12.11 44.18 12.34C44.83 12.61 45.3 12.88 45.59 13.15C45.79 13.33 46.08 13.72 46.46 14.31C46.84 14.9 47.09 15.36 47.22 15.68L49.85 22.08H43.72L40.82 15.33C40.45 14.46 40.12 13.89 39.84 13.63C39.45 13.29 39.01 13.12 38.51 13.12H38.03V22.08H32.58L32.57 22.09ZM38.03 8.95001H40.32C40.57 8.95001 41.05 8.85001 41.76 8.65001C42.12 8.56001 42.41 8.33001 42.64 7.96001C42.87 7.59001 42.98 7.16001 42.98 6.68001C42.98 5.97001 42.8 5.42001 42.44 5.04001C42.08 4.66001 41.41 4.47002 40.41 4.47002H38.03V8.96002V8.95001Z" fill="#005299"/>
<path d="M48.88 0.0100098H65.38V5.46001H59.84V22.09H54.41V5.46001H48.87V0.0100098H48.88Z" fill="#005299"/>
<path d="M66.16 0.0100098H71.23L77.84 12.22V0.0100098H82.96V22.09H77.84L71.26 9.97V22.09H66.16V0.0100098Z" fill="#005299"/>
<path d="M84.3 0.00999451H98.85V4.72H89.74V8.23H98.19V12.73H89.74V17.08H99.11V22.08H84.3V0V0.00999451Z" fill="#005299"/>
<path d="M100.31 22.09V0.0100098H109.36C111.04 0.0100098 112.32 0.190018 113.21 0.550018C114.1 0.910018 114.81 1.58001 115.35 2.56001C115.89 3.54001 116.16 4.73001 116.16 6.14001C116.16 7.37001 115.95 8.42 115.54 9.31C115.12 10.2 114.55 10.92 113.83 11.47C113.37 11.82 112.73 12.11 111.92 12.34C112.57 12.61 113.04 12.88 113.33 13.15C113.53 13.33 113.82 13.72 114.2 14.31C114.58 14.9 114.83 15.36 114.96 15.68L117.59 22.08H111.46L108.56 15.33C108.19 14.46 107.86 13.89 107.58 13.63C107.19 13.29 106.75 13.12 106.25 13.12H105.77V22.08H100.32L100.31 22.09ZM105.76 8.95001H108.05C108.3 8.95001 108.78 8.85001 109.49 8.65001C109.85 8.56001 110.14 8.33001 110.37 7.96001C110.6 7.59001 110.71 7.16001 110.71 6.68001C110.71 5.97001 110.53 5.42001 110.17 5.04001C109.81 4.66001 109.14 4.47002 108.14 4.47002H105.76V8.96002V8.95001Z" fill="#005299"/>
<path d="M2.46 30.11V32.98H0V25.08H3.37C4.21 25.08 4.85 25.18 5.29 25.37C5.73 25.56 6.07 25.86 6.33 26.26C6.59 26.66 6.71 27.1 6.71 27.6C6.71 28.35 6.45 28.96 5.92 29.42C5.4 29.88 4.7 30.11 3.82 30.11H2.45H2.46ZM2.43 28.41H3.24C3.95 28.41 4.31 28.15 4.31 27.62C4.31 27.13 3.98 26.88 3.32 26.88H2.43V28.41Z" fill="#5F5F61"/>
<path d="M9.74998 32.98H7.53998V27.1H9.45998V28.31C9.67998 27.43 10.19 26.99 10.99 26.99C11.07 26.99 11.18 26.99 11.33 27.01V29.06C11.17 29.02 11.02 29 10.9 29C10.14 29 9.74998 29.43 9.74998 30.28V32.98Z" fill="#5F5F61"/>
<path d="M14.93 33.1C13.95 33.1 13.18 32.8 12.6 32.19C12.03 31.58 11.74 30.87 11.74 30.05C11.74 29.17 12.04 28.44 12.64 27.85C13.24 27.26 14.02 26.97 14.98 26.97C15.94 26.97 16.73 27.26 17.31 27.84C17.89 28.42 18.19 29.14 18.19 30.01C18.19 30.88 17.89 31.62 17.3 32.21C16.7 32.8 15.91 33.09 14.93 33.09V33.1ZM14.97 31.7C15.33 31.7 15.55 31.51 15.63 31.14C15.71 30.77 15.75 30.38 15.75 29.97C15.75 29.42 15.69 29.02 15.58 28.78C15.47 28.54 15.27 28.42 14.98 28.42C14.71 28.42 14.52 28.55 14.4 28.8C14.28 29.05 14.21 29.46 14.21 30.04C14.21 30.71 14.27 31.16 14.4 31.38C14.53 31.6 14.72 31.71 14.97 31.71V31.7Z" fill="#5F5F61"/>
<path d="M21.41 34.83H19.1V27.09H21.22V27.92C21.52 27.28 22.07 26.97 22.88 26.97C23.58 26.97 24.13 27.24 24.53 27.79C24.93 28.34 25.13 29.08 25.13 30.02C25.13 30.96 24.93 31.71 24.52 32.26C24.11 32.82 23.58 33.09 22.91 33.09C22.24 33.09 21.76 32.84 21.41 32.34V34.83ZM21.41 30.82C21.41 31.08 21.47 31.29 21.59 31.43C21.71 31.57 21.86 31.65 22.04 31.65C22.32 31.65 22.51 31.52 22.61 31.27C22.71 31.01 22.77 30.62 22.77 30.09C22.77 29.48 22.71 29.05 22.59 28.8C22.47 28.55 22.29 28.43 22.05 28.43C21.91 28.43 21.77 28.49 21.62 28.6C21.48 28.71 21.41 28.9 21.41 29.15V30.84V30.82Z" fill="#5F5F61"/>
<path d="M29.93 30.87L32.08 31.01C31.95 31.59 31.63 32.08 31.11 32.49C30.59 32.9 29.88 33.1 28.99 33.1C28 33.1 27.21 32.81 26.62 32.24C26.03 31.67 25.74 30.96 25.74 30.11C25.74 29.26 26.03 28.49 26.61 27.88C27.19 27.27 27.97 26.97 28.94 26.97C29.91 26.97 30.64 27.26 31.22 27.83C31.8 28.4 32.09 29.18 32.09 30.16C32.09 30.24 32.09 30.35 32.09 30.5H28.15C28.15 30.87 28.22 31.14 28.35 31.32C28.47 31.5 28.71 31.59 29.06 31.59C29.56 31.59 29.86 31.35 29.94 30.87H29.93ZM29.78 29.34C29.78 28.94 29.7 28.68 29.54 28.54C29.38 28.4 29.19 28.33 28.96 28.33C28.41 28.33 28.14 28.67 28.14 29.34H29.78Z" fill="#5F5F61"/>
<path d="M35.2 32.98H32.99V27.1H34.91V28.31C35.13 27.43 35.64 26.99 36.44 26.99C36.52 26.99 36.63 26.99 36.78 27.01V29.06C36.62 29.02 36.47 29 36.35 29C35.59 29 35.2 29.43 35.2 30.28V32.98Z" fill="#5F5F61"/>
<path d="M41.38 27.09V28.59H40.21V30.76C40.21 31.06 40.27 31.23 40.38 31.29C40.49 31.35 40.61 31.37 40.73 31.37C40.92 31.37 41.13 31.34 41.39 31.27V32.91C40.94 33 40.49 33.04 40.05 33.04C39.34 33.04 38.82 32.89 38.49 32.58C38.16 32.28 37.99 31.79 37.99 31.12V30.43V28.57H37.11V27.07H37.99L38.02 25.16L40.21 25.13V27.08H41.38V27.09Z" fill="#5F5F61"/>
<path d="M47.64 27.09L45.33 33.46C45.15 33.94 44.9 34.32 44.57 34.59C44.24 34.86 43.73 35 43.04 35C42.87 35 42.49 34.98 41.88 34.95V33.31C42.18 33.36 42.46 33.38 42.71 33.38C43.37 33.38 43.7 33.23 43.7 32.94C43.7 32.84 43.67 32.71 43.6 32.54L41.49 27.09H43.96L44.93 30.23L45.95 27.09H47.64Z" fill="#5F5F61"/>
<path d="M55.6 29.96L57.82 30.09C57.72 31.06 57.36 31.8 56.75 32.32C56.14 32.84 55.39 33.1 54.5 33.1C53.43 33.1 52.56 32.75 51.9 32.04C51.24 31.33 50.91 30.35 50.91 29.1C50.91 27.85 51.22 26.86 51.85 26.1C52.47 25.34 53.35 24.96 54.46 24.96C55.5 24.96 56.31 25.25 56.87 25.83C57.43 26.41 57.75 27.18 57.82 28.13L55.56 28.25C55.56 27.72 55.46 27.34 55.26 27.1C55.06 26.86 54.82 26.75 54.55 26.75C53.79 26.75 53.4 27.52 53.4 29.05C53.4 29.91 53.5 30.49 53.7 30.8C53.9 31.11 54.18 31.26 54.54 31.26C55.18 31.26 55.54 30.82 55.62 29.95L55.6 29.96Z" fill="#5F5F61"/>
<path d="M61.5 33.1C60.52 33.1 59.75 32.8 59.17 32.19C58.6 31.58 58.31 30.87 58.31 30.05C58.31 29.17 58.61 28.44 59.21 27.85C59.81 27.26 60.59 26.97 61.55 26.97C62.51 26.97 63.3 27.26 63.88 27.84C64.46 28.42 64.76 29.14 64.76 30.01C64.76 30.88 64.46 31.62 63.87 32.21C63.27 32.8 62.48 33.09 61.5 33.09V33.1ZM61.53 31.7C61.89 31.7 62.11 31.51 62.19 31.14C62.27 30.77 62.31 30.38 62.31 29.97C62.31 29.42 62.25 29.02 62.14 28.78C62.03 28.54 61.83 28.42 61.54 28.42C61.27 28.42 61.08 28.55 60.96 28.8C60.84 29.05 60.77 29.46 60.77 30.04C60.77 30.71 60.83 31.16 60.96 31.38C61.09 31.6 61.28 31.71 61.53 31.71V31.7Z" fill="#5F5F61"/>
<path d="M71.41 32.98H69.1V29.28C69.1 28.98 69.05 28.78 68.96 28.7C68.87 28.62 68.75 28.57 68.6 28.57C68.18 28.57 67.97 28.86 67.97 29.45V32.98H65.66V27.1H67.8V27.93C68.12 27.29 68.68 26.98 69.49 26.98C69.92 26.98 70.28 27.06 70.57 27.23C70.86 27.39 71.08 27.61 71.2 27.87C71.33 28.13 71.39 28.58 71.39 29.23V33L71.41 32.98Z" fill="#5F5F61"/>
<path d="M72.1 31.31L73.92 31.06C74.02 31.48 74.44 31.7 75.16 31.7C75.76 31.7 76.06 31.58 76.06 31.35C76.06 31.25 76 31.17 75.89 31.12C75.77 31.06 75.5 31.01 75.07 30.95C73.87 30.78 73.13 30.52 72.83 30.17C72.53 29.82 72.38 29.42 72.38 28.99C72.38 28.39 72.63 27.9 73.13 27.53C73.63 27.16 74.29 26.97 75.1 26.97C76.53 26.97 77.44 27.48 77.83 28.51L76.08 28.84C75.92 28.49 75.58 28.32 75.06 28.32C74.81 28.32 74.63 28.35 74.51 28.42C74.39 28.49 74.33 28.55 74.33 28.62C74.33 28.81 74.52 28.93 74.89 28.97C75.85 29.08 76.51 29.19 76.85 29.3C77.19 29.41 77.49 29.62 77.73 29.91C77.97 30.21 78.09 30.57 78.09 30.99C78.09 31.63 77.82 32.15 77.28 32.52C76.74 32.9 76 33.09 75.06 33.09C73.47 33.09 72.48 32.49 72.1 31.3V31.31Z" fill="#5F5F61"/>
<path d="M84.62 27.09V32.97H82.49V32C82.18 32.73 81.57 33.09 80.66 33.09C80.1 33.09 79.67 32.93 79.36 32.62C79.05 32.31 78.9 31.87 78.9 31.29V27.08H81.21V30.78C81.21 31.01 81.24 31.17 81.31 31.27C81.37 31.36 81.5 31.41 81.68 31.41C81.88 31.41 82.04 31.34 82.16 31.2C82.28 31.06 82.35 30.86 82.35 30.61V27.08H84.63L84.62 27.09Z" fill="#5F5F61"/>
<path d="M88.11 25.08V32.98H85.84V25.08H88.11Z" fill="#5F5F61"/>
<path d="M92.95 27.09V28.59H91.78V30.76C91.78 31.06 91.84 31.23 91.95 31.29C92.06 31.35 92.18 31.37 92.3 31.37C92.49 31.37 92.7 31.34 92.96 31.27V32.91C92.51 33 92.06 33.04 91.62 33.04C90.91 33.04 90.39 32.89 90.06 32.58C89.73 32.28 89.56 31.79 89.56 31.12V30.43V28.57H88.68V27.07H89.56L89.59 25.16L91.78 25.13V27.08H92.95V27.09Z" fill="#5F5F61"/>
<path d="M99.74 32.98H97.54C97.49 32.73 97.46 32.46 97.46 32.16C97.04 32.79 96.41 33.1 95.57 33.1C94.88 33.1 94.36 32.92 94.01 32.57C93.66 32.22 93.49 31.81 93.49 31.35C93.49 30.73 93.77 30.23 94.34 29.84C94.91 29.45 95.91 29.23 97.34 29.15V29.02C97.34 28.76 97.28 28.59 97.16 28.51C97.04 28.43 96.87 28.38 96.64 28.38C96.11 28.38 95.81 28.59 95.75 29.02L93.64 28.82C93.94 27.59 94.96 26.97 96.71 26.97C97.18 26.97 97.62 27.02 98.02 27.11C98.42 27.2 98.73 27.35 98.96 27.55C99.19 27.75 99.35 27.96 99.43 28.19C99.51 28.41 99.55 28.84 99.55 29.48V31.83C99.55 32.28 99.61 32.66 99.73 32.98H99.74ZM97.35 30.22C96.37 30.32 95.87 30.64 95.87 31.16C95.87 31.51 96.06 31.69 96.45 31.69C96.7 31.69 96.91 31.62 97.08 31.47C97.25 31.32 97.34 31 97.34 30.5V30.22H97.35Z" fill="#5F5F61"/>
<path d="M106.5 32.98H104.19V29.28C104.19 28.98 104.14 28.78 104.05 28.7C103.96 28.62 103.84 28.57 103.69 28.57C103.27 28.57 103.06 28.86 103.06 29.45V32.98H100.75V27.1H102.89V27.93C103.21 27.29 103.77 26.98 104.58 26.98C105.01 26.98 105.37 27.06 105.66 27.23C105.95 27.39 106.17 27.61 106.29 27.87C106.42 28.13 106.48 28.58 106.48 29.23V33L106.5 32.98Z" fill="#5F5F61"/>
<path d="M111.35 27.09V28.59H110.18V30.76C110.18 31.06 110.24 31.23 110.35 31.29C110.46 31.35 110.58 31.37 110.7 31.37C110.89 31.37 111.1 31.34 111.36 31.27V32.91C110.91 33 110.46 33.04 110.02 33.04C109.31 33.04 108.79 32.89 108.46 32.58C108.13 32.28 107.96 31.79 107.96 31.12V30.43V28.57H107.08V27.07H107.96L107.99 25.16L110.18 25.13V27.08H111.35V27.09Z" fill="#5F5F61"/>
<path d="M111.6 31.31L113.42 31.06C113.52 31.48 113.94 31.7 114.66 31.7C115.26 31.7 115.56 31.58 115.56 31.35C115.56 31.25 115.5 31.17 115.39 31.12C115.27 31.06 115 31.01 114.57 30.95C113.37 30.78 112.63 30.52 112.33 30.17C112.03 29.82 111.88 29.42 111.88 28.99C111.88 28.39 112.13 27.9 112.63 27.53C113.13 27.16 113.79 26.97 114.6 26.97C116.03 26.97 116.94 27.48 117.33 28.51L115.58 28.84C115.42 28.49 115.08 28.32 114.56 28.32C114.31 28.32 114.13 28.35 114.01 28.42C113.89 28.49 113.83 28.55 113.83 28.62C113.83 28.81 114.02 28.93 114.39 28.97C115.35 29.08 116.01 29.19 116.35 29.3C116.69 29.41 116.99 29.62 117.23 29.91C117.47 30.21 117.59 30.57 117.59 30.99C117.59 31.63 117.32 32.15 116.78 32.52C116.24 32.9 115.5 33.09 114.56 33.09C112.97 33.09 111.98 32.49 111.6 31.3V31.31Z" fill="#5F5F61"/>
</svg>
