<svg xmlns="http://www.w3.org/2000/svg" width="122" height="35" viewBox="0 0 122 35" fill="none">
  <g clip-path="url(#clip0_797_27597)">
    <path d="M122 0.625519H1.0647V34.6108H122V0.625519Z" fill="#E5E5E4"/>
    <path d="M43.1127 35H0V0.0106621L49.2404 0L43.1127 35Z" fill="#5F5F61"/>
    <path d="M54.4564 9.35773H59.1263C60.1437 9.35773 60.9044 9.65449 61.4122 10.248C61.9181 10.8415 62.1711 11.6856 62.1711 12.782C62.1711 13.8784 61.8945 14.7883 61.343 15.4227C60.7916 16.0571 59.949 16.3734 58.8169 16.3734H57.2791V20.5138H54.4582V9.35773H54.4564ZM57.2791 14.1148H57.967C58.5094 14.1148 58.8897 13.9993 59.1081 13.7683C59.3265 13.5373 59.4375 13.2423 59.4375 12.8815C59.4375 12.5208 59.3429 12.2347 59.1518 11.9913C58.9607 11.7478 58.604 11.6252 58.0799 11.6252H57.2791V14.113V14.1148Z" fill="#005299"/>
    <path d="M67.5454 18.6728H64.3569L63.9146 20.5138H61.0464L64.4624 9.35773H67.5272L70.9432 20.5138H68.0022L67.5472 18.6728H67.5454ZM66.9612 16.2596L65.9584 12.2489L64.9647 16.2596H66.9612Z" fill="#005299"/>
    <path d="M71.3127 20.5138V9.35773H75.9936C76.8617 9.35773 77.526 9.44835 77.9846 9.63139C78.4432 9.81442 78.8127 10.1521 79.0948 10.6478C79.375 11.1418 79.517 11.7443 79.517 12.4551C79.517 13.0735 79.4096 13.6083 79.1949 14.0561C78.9801 14.5057 78.6835 14.87 78.3067 15.149C78.0665 15.3267 77.7389 15.4742 77.3203 15.5897C77.6552 15.7265 77.8991 15.8634 78.0519 16.0002C78.1557 16.0908 78.3049 16.2863 78.5015 16.5866C78.698 16.8869 78.8291 17.1179 78.8946 17.2796L80.2541 20.512H77.0801L75.5786 17.1037C75.3875 16.663 75.2183 16.3751 75.0709 16.2436C74.8689 16.0713 74.6395 15.9842 74.3829 15.9842H74.1354V20.512H71.3145L71.3127 20.5138ZM74.1336 13.8784H75.3184C75.4458 13.8784 75.6951 13.8287 76.0627 13.7256C76.2484 13.6794 76.4012 13.5639 76.5177 13.3755C76.636 13.1872 76.6943 12.9722 76.6943 12.7287C76.6943 12.368 76.6014 12.0925 76.4158 11.8989C76.2302 11.7069 75.8807 11.6092 75.3675 11.6092H74.1336V13.8767V13.8784Z" fill="#005299"/>
    <path d="M79.7499 9.35773H88.2891V12.1121H85.4245V20.5138H82.6164V12.1121H79.7518V9.35773H79.7499Z" fill="#005299"/>
    <path d="M88.6932 9.35773H91.3157L94.739 15.5293V9.35773H97.387V20.5138H94.739L91.3339 14.3884V20.5138H88.6913V9.35773H88.6932Z" fill="#005299"/>
    <path d="M98.0804 9.35773H105.608V11.7389H100.896V13.5124H105.267V15.787H100.896V17.9869H105.744V20.5138H98.0804V9.35773Z" fill="#005299"/>
    <path d="M106.363 20.5138V9.35773H111.044C111.912 9.35773 112.576 9.44835 113.035 9.63139C113.494 9.81442 113.863 10.1521 114.145 10.6478C114.425 11.1418 114.567 11.7443 114.567 12.4551C114.567 13.0735 114.46 13.6083 114.245 14.0561C114.03 14.5057 113.734 14.87 113.359 15.149C113.119 15.3267 112.791 15.4742 112.372 15.5897C112.707 15.7265 112.951 15.8634 113.104 16.0002C113.208 16.0908 113.357 16.2863 113.554 16.5866C113.75 16.8869 113.881 17.1179 113.947 17.2796L115.306 20.512H112.132L110.631 17.1037C110.44 16.663 110.27 16.3751 110.123 16.2436C109.921 16.0713 109.692 15.9842 109.435 15.9842H109.188V20.512H106.367L106.363 20.5138ZM109.186 13.8784H110.37C110.498 13.8784 110.747 13.8287 111.115 13.7256C111.3 13.6794 111.453 13.5639 111.57 13.3755C111.688 13.1872 111.746 12.9722 111.746 12.7287C111.746 12.368 111.654 12.0925 111.468 11.8989C111.282 11.7069 110.933 11.6092 110.42 11.6092H109.186V13.8767V13.8784Z" fill="#005299"/>
    <path d="M114.857 22.0047C115.111 22.0047 115.319 22.2073 115.319 22.4561C115.319 22.7048 115.111 22.9074 114.857 22.9074C114.602 22.9074 114.394 22.7048 114.394 22.4561C114.394 22.2073 114.602 22.0047 114.857 22.0047ZM115.175 22.4561C115.175 22.2499 115.044 22.122 114.857 22.122C114.669 22.122 114.538 22.2499 114.538 22.4561C114.538 22.6622 114.669 22.7901 114.857 22.7901C115.044 22.7901 115.175 22.6622 115.175 22.4561ZM114.669 22.2162H114.855C114.986 22.2162 115.066 22.2481 115.066 22.3637C115.066 22.4543 115.011 22.488 114.931 22.4916L115.059 22.7013H114.937L114.824 22.4969H114.782V22.7013H114.669V22.2162ZM114.782 22.4134H114.879C114.924 22.4134 114.946 22.3992 114.946 22.3512C114.946 22.3032 114.919 22.2979 114.879 22.2979H114.782V22.4134Z" fill="#5F5F61"/>
    <path d="M56.704 24.3664V25.0843H54.4818V22.0811H56.704V22.7742H55.3699V23.2095H56.4474V23.8759H55.3699V24.3664H56.704Z" fill="#5F5F61"/>
    <path d="M59.1827 25.0843H58.3201V23.6769C58.3201 23.5614 58.3019 23.4867 58.2673 23.4547C58.2327 23.4228 58.1872 23.4068 58.1345 23.4068C57.9779 23.4068 57.8979 23.5187 57.8979 23.7408V25.086H57.0352V22.8488H57.836V23.1651C57.9543 22.9234 58.1654 22.8026 58.4693 22.8026C58.6295 22.8026 58.7642 22.8346 58.8752 22.8968C58.9862 22.959 59.0645 23.0389 59.1118 23.1384C59.1591 23.2379 59.1827 23.4103 59.1827 23.6538V25.086V25.0843Z" fill="#5F5F61"/>
    <path d="M61.8835 22.3388L61.8617 22.9394H61.8199C61.7416 22.9323 61.687 22.9305 61.6524 22.9305C61.5177 22.9305 61.4377 22.9572 61.4104 23.0123C61.5742 23.1509 61.6579 23.3161 61.6579 23.5116C61.6579 23.7408 61.5687 23.9132 61.3903 24.0269C61.212 24.1425 60.9699 24.1993 60.6642 24.1993C60.6569 24.1993 60.6187 24.1993 60.5513 24.1958C60.4877 24.1922 60.4549 24.1922 60.4513 24.1922C60.3111 24.1922 60.242 24.2295 60.242 24.3024C60.242 24.3664 60.3038 24.4019 60.4276 24.4054L61.1356 24.4357C61.394 24.4481 61.5833 24.521 61.7034 24.656C61.8235 24.7911 61.8835 24.9492 61.8835 25.1287C61.8835 25.3437 61.7944 25.5179 61.6142 25.6529C61.434 25.788 61.0846 25.8573 60.5659 25.8573C59.7651 25.8573 59.3647 25.6707 59.3647 25.2957C59.3647 25.0914 59.4703 24.9492 59.6832 24.8692C59.5467 24.7715 59.4776 24.6542 59.4776 24.5192C59.4776 24.2988 59.6177 24.1336 59.8998 24.0216C59.665 23.9168 59.5467 23.7444 59.5467 23.5027C59.5467 23.2806 59.6414 23.1082 59.8325 22.9856C60.0236 22.863 60.2838 22.8008 60.615 22.8008C60.7661 22.8008 60.9044 22.8168 61.0282 22.847C61.0791 22.4969 61.2611 22.321 61.576 22.321C61.6488 22.321 61.7507 22.3263 61.8817 22.3388H61.8835ZM60.3985 25.0541C60.3675 25.0541 60.3348 25.0523 60.3038 25.0523C60.1546 25.0523 60.0818 25.0985 60.0818 25.1927C60.0818 25.2797 60.1382 25.3348 60.2511 25.3597C60.3639 25.3846 60.5149 25.397 60.7042 25.397C60.8826 25.397 60.9991 25.381 61.05 25.3508C61.101 25.3206 61.1265 25.278 61.1265 25.2229C61.1265 25.1856 61.1155 25.1536 61.0919 25.1269C61.0682 25.1003 61.0136 25.086 60.9281 25.0825L60.4003 25.0541H60.3985ZM60.6205 23.7835C60.7879 23.7835 60.8717 23.6929 60.8717 23.5134C60.8717 23.3339 60.7861 23.2362 60.6132 23.2362C60.4403 23.2362 60.3584 23.3304 60.3584 23.5169C60.3584 23.6946 60.4458 23.7835 60.6205 23.7835Z" fill="#5F5F61"/>
    <path d="M62.9773 21.9852V22.68H62.1147V21.9852H62.9773ZM62.9773 22.847V25.0843H62.1147V22.847H62.9773Z" fill="#5F5F61"/>
    <path d="M65.5798 25.0843H64.7172V23.6769C64.7172 23.5614 64.699 23.4867 64.6644 23.4547C64.6298 23.4228 64.5843 23.4068 64.5316 23.4068C64.375 23.4068 64.295 23.5187 64.295 23.7408V25.086H63.4323V22.8488H64.2331V23.1651C64.3514 22.9234 64.5625 22.8026 64.8664 22.8026C65.0266 22.8026 65.1613 22.8346 65.2723 22.8968C65.3833 22.959 65.4616 23.0389 65.5089 23.1384C65.5562 23.2379 65.5798 23.4103 65.5798 23.6538V25.086V25.0843Z" fill="#5F5F61"/>
    <path d="M67.4889 24.2811L68.2934 24.3361C68.246 24.5565 68.1241 24.7431 67.9294 24.8977C67.7346 25.0523 67.4689 25.1305 67.1359 25.1305C66.7646 25.1305 66.4698 25.0221 66.2477 24.8035C66.0275 24.5849 65.9165 24.3148 65.9165 23.9932C65.9165 23.6715 66.0257 23.3766 66.2441 23.1456C66.4625 22.9145 66.7519 22.8008 67.1158 22.8008C67.4798 22.8008 67.7528 22.9092 67.9694 23.126C68.186 23.3428 68.2952 23.6378 68.2952 24.0127C68.2952 24.0429 68.2952 24.0856 68.2934 24.1407H66.8192C66.8228 24.2811 66.8465 24.3859 66.892 24.4534C66.9375 24.521 67.0267 24.5565 67.1559 24.5565C67.3433 24.5565 67.4544 24.4641 67.4871 24.2811H67.4889ZM67.4307 23.7C67.4307 23.5489 67.3998 23.4476 67.3415 23.3961C67.2833 23.3446 67.2105 23.3179 67.1249 23.3179C66.9211 23.3179 66.8192 23.4459 66.8192 23.7H67.4325H67.4307Z" fill="#5F5F61"/>
    <path d="M70.0878 24.2811L70.8922 24.3361C70.8449 24.5565 70.723 24.7431 70.5282 24.8977C70.3335 25.0523 70.0678 25.1305 69.7347 25.1305C69.3635 25.1305 69.0686 25.0221 68.8466 24.8035C68.6264 24.5849 68.5154 24.3148 68.5154 23.9932C68.5154 23.6715 68.6246 23.3766 68.843 23.1456C69.0614 22.9145 69.3507 22.8008 69.7147 22.8008C70.0787 22.8008 70.3517 22.9092 70.5683 23.126C70.7849 23.3428 70.8941 23.6378 70.8941 24.0127C70.8941 24.0429 70.894 24.0856 70.8922 24.1407H69.4181C69.4217 24.2811 69.4454 24.3859 69.4909 24.4534C69.5364 24.521 69.6255 24.5565 69.7548 24.5565C69.9422 24.5565 70.0532 24.4641 70.086 24.2811H70.0878ZM70.0296 23.7C70.0296 23.5489 69.9986 23.4476 69.9404 23.3961C69.8822 23.3446 69.8094 23.3179 69.7238 23.3179C69.52 23.3179 69.4181 23.4459 69.4181 23.7H70.0314H70.0296Z" fill="#5F5F61"/>
    <path d="M72.0589 25.0843H71.2326V22.847H71.9515V23.3091C72.0334 22.9732 72.2245 22.8044 72.5248 22.8044C72.5557 22.8044 72.5976 22.8079 72.6503 22.8133V23.5952C72.5903 23.5809 72.5357 23.5738 72.4884 23.5738C72.2026 23.5738 72.0607 23.7355 72.0607 24.0607V25.0861L72.0589 25.0843Z" fill="#5F5F61"/>
    <path d="M73.786 21.9852V22.68H72.9233V21.9852H73.786ZM73.786 22.847V25.0843H72.9233V22.847H73.786Z" fill="#5F5F61"/>
    <path d="M76.3903 25.0843H75.5277V23.6769C75.5277 23.5614 75.5095 23.4867 75.4749 23.4547C75.4403 23.4228 75.3948 23.4068 75.342 23.4068C75.1855 23.4068 75.1054 23.5187 75.1054 23.7408V25.086H74.2428V22.8488H75.0436V23.1651C75.1619 22.9234 75.373 22.8026 75.6769 22.8026C75.8371 22.8026 75.9717 22.8346 76.0828 22.8968C76.1938 22.959 76.272 23.0389 76.3194 23.1384C76.3667 23.2379 76.3903 23.4103 76.3903 23.6538V25.086V25.0843Z" fill="#5F5F61"/>
    <path d="M79.1384 22.3388L79.1166 22.9394H79.0747C78.9965 22.9323 78.9419 22.9305 78.9073 22.9305C78.7726 22.9305 78.6925 22.9572 78.6652 23.0123C78.829 23.1509 78.9128 23.3161 78.9128 23.5116C78.9128 23.7408 78.8236 23.9132 78.6452 24.0269C78.4669 24.1425 78.2248 24.1993 77.9191 24.1993C77.9118 24.1993 77.8736 24.1993 77.8062 24.1958C77.7425 24.1922 77.7098 24.1922 77.7061 24.1922C77.566 24.1922 77.4968 24.2295 77.4968 24.3024C77.4968 24.3664 77.5587 24.4019 77.6825 24.4054L78.3904 24.4357C78.6489 24.4481 78.8381 24.521 78.9583 24.656C79.0784 24.7911 79.1384 24.9492 79.1384 25.1287C79.1384 25.3437 79.0493 25.5179 78.8691 25.6529C78.6889 25.788 78.3395 25.8573 77.8208 25.8573C77.02 25.8573 76.6196 25.6707 76.6196 25.2957C76.6196 25.0914 76.7252 24.9492 76.9381 24.8692C76.8016 24.7715 76.7325 24.6542 76.7325 24.5192C76.7325 24.2988 76.8726 24.1336 77.1547 24.0216C76.9199 23.9168 76.8016 23.7444 76.8016 23.5027C76.8016 23.2806 76.8963 23.1082 77.0874 22.9856C77.2785 22.863 77.5387 22.8008 77.8699 22.8008C78.021 22.8008 78.1593 22.8168 78.2831 22.847C78.334 22.4969 78.516 22.321 78.8309 22.321C78.9037 22.321 79.0056 22.3263 79.1366 22.3388H79.1384ZM77.6534 25.0541C77.6224 25.0541 77.5897 25.0523 77.5587 25.0523C77.4095 25.0523 77.3367 25.0985 77.3367 25.1927C77.3367 25.2797 77.3931 25.3348 77.5059 25.3597C77.6188 25.3846 77.7698 25.397 77.9591 25.397C78.1375 25.397 78.2539 25.381 78.3049 25.3508C78.3559 25.3206 78.3813 25.278 78.3813 25.2229C78.3813 25.1856 78.3704 25.1536 78.3468 25.1269C78.3231 25.1003 78.2685 25.086 78.183 25.0825L77.6552 25.0541H77.6534ZM77.8754 23.7835C78.0428 23.7835 78.1265 23.6929 78.1265 23.5134C78.1265 23.3339 78.041 23.2362 77.8681 23.2362C77.6952 23.2362 77.6133 23.3304 77.6133 23.5169C77.6133 23.6946 77.7007 23.7835 77.8754 23.7835Z" fill="#5F5F61"/>
    <path d="M82.6946 25.0843H81.872C81.852 24.9883 81.841 24.8852 81.841 24.7715C81.6845 25.0114 81.4498 25.1305 81.1331 25.1305C80.8728 25.1305 80.6781 25.0629 80.5507 24.9279C80.4215 24.7928 80.3578 24.6382 80.3578 24.4641C80.3578 24.2278 80.4633 24.0376 80.6745 23.8901C80.8856 23.7444 81.2605 23.6573 81.7992 23.6271V23.5774C81.7992 23.4796 81.7773 23.4139 81.7337 23.3819C81.69 23.3499 81.6245 23.3339 81.5408 23.3339C81.3424 23.3339 81.2314 23.4157 81.2077 23.5774L80.4197 23.5027C80.5325 23.0354 80.9147 22.8008 81.5681 22.8008C81.7464 22.8008 81.9084 22.8186 82.0576 22.8541C82.2069 22.8897 82.3233 22.9465 82.4107 23.0229C82.498 23.0993 82.5545 23.1793 82.5854 23.2646C82.6145 23.3499 82.6291 23.5134 82.6291 23.7551V24.6489C82.6291 24.8195 82.6509 24.9634 82.6964 25.0843H82.6946ZM81.7992 24.0358C81.4316 24.0749 81.2477 24.1958 81.2477 24.3948C81.2477 24.5298 81.3205 24.5974 81.4661 24.5974C81.559 24.5974 81.6372 24.5689 81.7027 24.5138C81.7682 24.4588 81.801 24.3344 81.801 24.1442V24.0358H81.7992Z" fill="#5F5F61"/>
    <path d="M85.2243 25.0843H84.3617V23.6769C84.3617 23.5614 84.3435 23.4867 84.3089 23.4547C84.2743 23.4228 84.2288 23.4068 84.176 23.4068C84.0195 23.4068 83.9394 23.5187 83.9394 23.7408V25.086H83.0768V22.8488H83.8776V23.1651C83.9959 22.9234 84.207 22.8026 84.5109 22.8026C84.671 22.8026 84.8057 22.8346 84.9167 22.8968C85.0278 22.959 85.106 23.0389 85.1533 23.1384C85.2007 23.2379 85.2243 23.4103 85.2243 23.6538V25.086V25.0843Z" fill="#5F5F61"/>
    <path d="M87.8287 25.0843H87.0188V24.7875C86.8987 25.0167 86.7021 25.1305 86.4255 25.1305C86.1707 25.1305 85.9651 25.0292 85.8067 24.8284C85.6484 24.6276 85.5701 24.3344 85.5701 23.9488C85.5701 23.5898 85.6502 23.3037 85.8085 23.0922C85.9669 22.8808 86.178 22.7759 86.4382 22.7759C86.6566 22.7759 86.835 22.8595 86.9769 23.0283V22.0793H87.8269V25.0825L87.8287 25.0843ZM86.9769 23.6449C86.9769 23.4441 86.8951 23.3428 86.7331 23.3428C86.6184 23.3428 86.5438 23.4068 86.5092 23.5347C86.4746 23.6627 86.4564 23.819 86.4564 24.0038C86.4564 24.3664 86.5474 24.5476 86.7294 24.5476C86.7986 24.5476 86.8568 24.5192 86.906 24.4623C86.9551 24.4055 86.9788 24.3184 86.9788 24.2011V23.6467L86.9769 23.6449Z" fill="#5F5F61"/>
    <path d="M89.1154 24.2153L89.958 24.0607C90.029 24.3024 90.211 24.4232 90.504 24.4232C90.7315 24.4232 90.8461 24.361 90.8461 24.2384C90.8461 24.1744 90.8206 24.1229 90.7679 24.0874C90.7151 24.0518 90.6205 24.0198 90.4858 23.9914C89.9671 23.8901 89.6359 23.7586 89.4884 23.5951C89.341 23.4317 89.2682 23.2415 89.2682 23.0212C89.2682 22.7386 89.3738 22.5023 89.5849 22.3139C89.796 22.1256 90.0999 22.0314 90.4967 22.0314C91.0991 22.0314 91.4958 22.2766 91.6888 22.7688L90.9371 22.9998C90.8589 22.799 90.7005 22.6978 90.4639 22.6978C90.2656 22.6978 90.1673 22.7599 90.1673 22.8843C90.1673 22.9394 90.1891 22.9838 90.2346 23.0141C90.2801 23.0443 90.3657 23.0745 90.4949 23.1011C90.8479 23.1775 91.0991 23.2451 91.2483 23.3037C91.3976 23.3624 91.5213 23.4619 91.6196 23.604C91.7197 23.7462 91.7688 23.9132 91.7688 24.1051C91.7688 24.409 91.6469 24.656 91.4048 24.8444C91.1628 25.0327 90.8443 25.1269 90.4512 25.1269C89.7305 25.1269 89.2864 24.8213 89.1172 24.2118L89.1154 24.2153Z" fill="#5F5F61"/>
    <path d="M93.4086 24.1815L94.1439 24.2455C94.1093 24.5067 94.0019 24.72 93.8199 24.8835C93.6397 25.047 93.3977 25.1305 93.0974 25.1305C92.7607 25.1305 92.4877 25.0239 92.2784 24.8088C92.0691 24.5938 91.9636 24.3184 91.9636 23.9825C91.9636 23.6467 92.0673 23.357 92.2766 23.1349C92.4859 22.9128 92.7552 22.8008 93.0901 22.8008C93.3849 22.8008 93.627 22.8843 93.8126 23.0531C93.9983 23.222 94.1056 23.4334 94.1329 23.6893L93.3777 23.7533C93.3467 23.5169 93.2575 23.3997 93.1138 23.3997C93.021 23.3997 92.9536 23.4423 92.9118 23.5276C92.8699 23.6129 92.8481 23.7622 92.8481 23.9754C92.8481 24.1584 92.8699 24.2953 92.9118 24.3824C92.9536 24.4712 93.0282 24.5138 93.1338 24.5138C93.2885 24.5138 93.3795 24.4037 93.4086 24.1815Z" fill="#5F5F61"/>
    <path d="M95.2632 21.9852V22.68H94.4005V21.9852H95.2632ZM95.2632 22.847V25.0843H94.4005V22.847H95.2632Z" fill="#5F5F61"/>
    <path d="M97.1723 24.2811L97.9767 24.3361C97.9294 24.5565 97.8074 24.7431 97.6127 24.8977C97.418 25.0523 97.1523 25.1305 96.8192 25.1305C96.448 25.1305 96.1531 25.0221 95.9311 24.8035C95.7109 24.5849 95.5999 24.3148 95.5999 23.9932C95.5999 23.6715 95.7091 23.3766 95.9275 23.1456C96.1458 22.9145 96.4352 22.8008 96.7992 22.8008C97.1632 22.8008 97.4362 22.9092 97.6528 23.126C97.8693 23.3428 97.9785 23.6378 97.9785 24.0127C97.9785 24.0429 97.9785 24.0856 97.9767 24.1407H96.5026C96.5062 24.2811 96.5299 24.3859 96.5754 24.4534C96.6209 24.521 96.71 24.5565 96.8392 24.5565C97.0267 24.5565 97.1377 24.4641 97.1705 24.2811H97.1723ZM97.114 23.7C97.114 23.5489 97.0831 23.4476 97.0249 23.3961C96.9666 23.3446 96.8938 23.3179 96.8083 23.3179C96.6045 23.3179 96.5026 23.4459 96.5026 23.7H97.1159H97.114Z" fill="#5F5F61"/>
    <path d="M100.466 25.0843H99.6037V23.6769C99.6037 23.5614 99.5855 23.4867 99.551 23.4547C99.5164 23.4228 99.4709 23.4068 99.4181 23.4068C99.2616 23.4068 99.1815 23.5187 99.1815 23.7408V25.086H98.3188V22.8488H99.1196V23.1651C99.2379 22.9234 99.449 22.8026 99.753 22.8026C99.9131 22.8026 100.048 22.8346 100.159 22.8968C100.27 22.959 100.348 23.0389 100.395 23.1384C100.443 23.2379 100.466 23.4103 100.466 23.6538V25.086V25.0843Z" fill="#5F5F61"/>
    <path d="M102.248 24.1815L102.983 24.2455C102.949 24.5067 102.841 24.72 102.659 24.8835C102.479 25.047 102.237 25.1305 101.937 25.1305C101.6 25.1305 101.327 25.0239 101.118 24.8088C100.909 24.5938 100.803 24.3184 100.803 23.9825C100.803 23.6467 100.907 23.357 101.116 23.1349C101.325 22.9128 101.595 22.8008 101.93 22.8008C102.224 22.8008 102.466 22.8843 102.652 23.0531C102.838 23.222 102.945 23.4334 102.972 23.6893L102.217 23.7533C102.186 23.5169 102.097 23.3997 101.953 23.3997C101.86 23.3997 101.793 23.4423 101.751 23.5276C101.709 23.6129 101.688 23.7622 101.688 23.9754C101.688 24.1584 101.709 24.2953 101.751 24.3824C101.793 24.4712 101.868 24.5138 101.973 24.5138C102.128 24.5138 102.219 24.4037 102.248 24.1815Z" fill="#5F5F61"/>
    <path d="M104.692 24.2811L105.497 24.3361C105.449 24.5565 105.327 24.7431 105.133 24.8977C104.938 25.0523 104.672 25.1305 104.339 25.1305C103.968 25.1305 103.673 25.0221 103.451 24.8035C103.231 24.5849 103.12 24.3148 103.12 23.9932C103.12 23.6715 103.229 23.3766 103.447 23.1456C103.666 22.9145 103.955 22.8008 104.319 22.8008C104.683 22.8008 104.956 22.9092 105.173 23.126C105.389 23.3428 105.498 23.6378 105.498 24.0127C105.498 24.0429 105.498 24.0856 105.497 24.1407H104.023C104.026 24.2811 104.05 24.3859 104.095 24.4534C104.141 24.521 104.23 24.5565 104.359 24.5565C104.547 24.5565 104.658 24.4641 104.69 24.2811H104.692ZM104.634 23.7C104.634 23.5489 104.603 23.4476 104.545 23.3961C104.487 23.3446 104.414 23.3179 104.328 23.3179C104.124 23.3179 104.023 23.4459 104.023 23.7H104.636H104.634Z" fill="#5F5F61"/>
    <path d="M106.631 24.2846V25.0221L106.157 25.8555H105.817L106.157 25.0825H105.81V24.2846H106.632H106.631Z" fill="#5F5F61"/>
    <path d="M109.102 22.0811V25.0843H108.196V22.0811H109.102Z" fill="#5F5F61"/>
    <path d="M111.735 25.0843H110.873V23.6769C110.873 23.5614 110.855 23.4867 110.82 23.4547C110.785 23.4228 110.74 23.4068 110.687 23.4068C110.531 23.4068 110.451 23.5187 110.451 23.7408V25.086H109.588V22.8488H110.389V23.1651C110.507 22.9234 110.718 22.8026 111.022 22.8026C111.182 22.8026 111.317 22.8346 111.428 22.8968C111.539 22.959 111.617 23.0389 111.665 23.1384C111.712 23.2379 111.735 23.4103 111.735 23.6538V25.086V25.0843Z" fill="#5F5F61"/>
    <path d="M113.517 24.1815L114.252 24.2455C114.218 24.5067 114.11 24.72 113.928 24.8835C113.748 25.047 113.506 25.1305 113.206 25.1305C112.869 25.1305 112.596 25.0239 112.387 24.8088C112.178 24.5938 112.072 24.3184 112.072 23.9825C112.072 23.6467 112.176 23.357 112.385 23.1349C112.594 22.9128 112.864 22.8008 113.199 22.8008C113.494 22.8008 113.736 22.8843 113.921 23.0531C114.107 23.222 114.214 23.4334 114.242 23.6893L113.486 23.7533C113.455 23.5169 113.366 23.3997 113.222 23.3997C113.13 23.3997 113.062 23.4423 113.02 23.5276C112.978 23.6129 112.957 23.7622 112.957 23.9754C112.957 24.1584 112.978 24.2953 113.02 24.3824C113.062 24.4712 113.137 24.5138 113.242 24.5138C113.397 24.5138 113.488 24.4037 113.517 24.1815Z" fill="#5F5F61"/>
    <path d="M115.299 24.2811V25.0843H114.476V24.2811H115.299Z" fill="#5F5F61"/>
    <path d="M11.6931 23.3819L11.3091 23.341C11.3546 23.1758 11.4347 23.0514 11.5475 22.9643C11.6604 22.879 11.8041 22.8346 11.9789 22.8346C12.1536 22.8346 12.2919 22.879 12.3883 22.9661C12.483 23.0549 12.5321 23.1722 12.5321 23.3179C12.5321 23.3695 12.5285 23.4228 12.5194 23.4814C12.5103 23.5401 12.4775 23.6982 12.4193 23.9559C12.3701 24.1691 12.3465 24.3166 12.3465 24.4019C12.3465 24.4801 12.3592 24.5654 12.3865 24.6578H11.9952C11.9789 24.5921 11.9698 24.5245 11.9661 24.4552C11.9097 24.5334 11.846 24.5938 11.7732 24.6365C11.7004 24.6774 11.6294 24.6987 11.5566 24.6987C11.4438 24.6987 11.3473 24.6525 11.2709 24.5583C11.1945 24.4641 11.1544 24.3397 11.1544 24.1816C11.1544 24.0021 11.1999 23.8617 11.2909 23.7657C11.3819 23.668 11.533 23.6094 11.7441 23.5898C11.9315 23.5703 12.0553 23.5472 12.119 23.5205C12.139 23.453 12.1499 23.3979 12.1499 23.357C12.1499 23.3037 12.1317 23.2593 12.0953 23.2273C12.0589 23.1936 12.008 23.1776 11.9461 23.1776C11.8078 23.1776 11.7241 23.2451 11.6949 23.3801L11.6931 23.3819ZM12.0553 23.8279C12.0316 23.8351 12.0007 23.8422 11.9625 23.8493C11.7841 23.8759 11.6658 23.9115 11.6076 23.9577C11.5512 24.0021 11.522 24.0625 11.522 24.1389C11.522 24.1976 11.5384 24.2455 11.5712 24.2829C11.6039 24.3202 11.644 24.3379 11.6949 24.3379C11.7459 24.3379 11.7969 24.322 11.8442 24.2917C11.8915 24.2615 11.9297 24.2189 11.9588 24.1638C11.988 24.1087 12.0153 24.0181 12.0407 23.8919L12.0553 23.8279Z" fill="white"/>
    <path d="M13.9062 24.6596H13.4949L13.9135 22.1984H14.7197C14.8726 22.1984 14.9909 22.2197 15.0728 22.2642C15.1547 22.3086 15.222 22.3761 15.2711 22.4703C15.3221 22.5645 15.3458 22.6782 15.3458 22.8133C15.3458 22.9768 15.3148 23.1278 15.2566 23.2646C15.1965 23.4015 15.1219 23.5028 15.0327 23.5703C14.9435 23.636 14.838 23.6805 14.7161 23.7053C14.6505 23.7178 14.5195 23.7231 14.3229 23.7231H14.0663L13.9062 24.6614V24.6596ZM14.1355 23.3126H14.2538C14.4594 23.3126 14.5996 23.2984 14.676 23.27C14.7506 23.2415 14.8125 23.19 14.8617 23.1154C14.9108 23.0407 14.9344 22.9537 14.9344 22.8559C14.9344 22.7493 14.8999 22.6764 14.8289 22.6356C14.787 22.6125 14.6942 22.6 14.545 22.6H14.2556L14.1355 23.3108V23.3126Z" fill="white"/>
    <path d="M15.9099 23.3819L15.5259 23.341C15.5714 23.1758 15.6515 23.0514 15.7643 22.9643C15.8772 22.879 16.0209 22.8346 16.1957 22.8346C16.3704 22.8346 16.5087 22.879 16.6051 22.9661C16.6998 23.0549 16.7489 23.1722 16.7489 23.3179C16.7489 23.3695 16.7453 23.4228 16.7362 23.4814C16.7271 23.5401 16.6943 23.6982 16.6361 23.9559C16.5869 24.1691 16.5633 24.3166 16.5633 24.4019C16.5633 24.4801 16.576 24.5654 16.6033 24.6578H16.212C16.1957 24.5921 16.1866 24.5245 16.1829 24.4552C16.1265 24.5334 16.0628 24.5938 15.99 24.6365C15.9172 24.6774 15.8462 24.6987 15.7734 24.6987C15.6606 24.6987 15.5641 24.6525 15.4877 24.5583C15.4113 24.4641 15.3712 24.3397 15.3712 24.1816C15.3712 24.0021 15.4167 23.8617 15.5077 23.7657C15.5987 23.668 15.7498 23.6094 15.9609 23.5898C16.1483 23.5703 16.2721 23.5472 16.3358 23.5205C16.3558 23.453 16.3667 23.3979 16.3667 23.357C16.3667 23.3037 16.3485 23.2593 16.3121 23.2273C16.2757 23.1936 16.2248 23.1776 16.1629 23.1776C16.0246 23.1776 15.9409 23.2451 15.9117 23.3801L15.9099 23.3819ZM16.2703 23.8279C16.2466 23.8351 16.2157 23.8422 16.1775 23.8493C15.9991 23.8759 15.8808 23.9115 15.8226 23.9577C15.7661 24.0021 15.737 24.0625 15.737 24.1389C15.737 24.1976 15.7534 24.2455 15.7862 24.2829C15.8189 24.3202 15.859 24.3379 15.9099 24.3379C15.9609 24.3379 16.0118 24.322 16.0592 24.2917C16.1065 24.2615 16.1447 24.2189 16.1738 24.1638C16.2029 24.1087 16.2302 24.0181 16.2557 23.8919L16.2703 23.8279Z" fill="white"/>
    <path d="M17.1893 22.8755H17.557L17.4987 23.222C17.6352 22.9643 17.7863 22.8364 17.9482 22.8364C18.0047 22.8364 18.0665 22.8524 18.1321 22.8861L17.9828 23.2806C17.9464 23.2646 17.9082 23.2575 17.87 23.2575C17.8081 23.2575 17.7499 23.2788 17.6953 23.3197C17.6134 23.3837 17.5497 23.4672 17.506 23.5703C17.4623 23.6733 17.4186 23.851 17.3768 24.1016L17.2803 24.6614H16.889L17.193 22.8772L17.1893 22.8755Z" fill="white"/>
    <path d="M18.0884 23.2344L18.1521 22.8772H18.356L18.4051 22.5911L18.8619 22.2535L18.7491 22.8755H18.9966L18.9365 23.2326H18.6854L18.5489 23.9772C18.5252 24.1105 18.5125 24.1887 18.5125 24.21C18.5125 24.2491 18.5234 24.2793 18.5434 24.2988C18.5634 24.3184 18.6017 24.3273 18.6526 24.3273C18.669 24.3273 18.7145 24.3237 18.7891 24.3148L18.7236 24.672C18.6544 24.688 18.5835 24.6951 18.5125 24.6951C18.376 24.6951 18.2741 24.6631 18.2049 24.6009C18.1376 24.5387 18.103 24.4463 18.103 24.3255C18.103 24.2704 18.1212 24.1425 18.1558 23.9452L18.2868 23.2273H18.0866L18.0884 23.2344Z" fill="white"/>
    <path d="M19.2532 22.8755H19.6262L19.588 23.1065C19.6845 23.0052 19.7737 22.9341 19.8537 22.8932C19.9338 22.8524 20.0175 22.8328 20.1031 22.8328C20.2196 22.8328 20.3124 22.8737 20.3833 22.9554C20.4525 23.0372 20.4889 23.1491 20.4889 23.2913C20.4889 23.3535 20.4743 23.4708 20.4452 23.6449L20.2742 24.656H19.8792L20.0521 23.6449C20.0776 23.4939 20.0903 23.4032 20.0903 23.373C20.0903 23.3091 20.0758 23.2611 20.0448 23.2255C20.0139 23.1918 19.9739 23.174 19.9265 23.174C19.8738 23.174 19.8192 23.1953 19.7627 23.238C19.6827 23.2984 19.6244 23.3713 19.5844 23.453C19.5462 23.5365 19.5061 23.6929 19.4679 23.9221L19.3423 24.6543H18.951L19.255 22.8701L19.2532 22.8755Z" fill="white"/>
    <path d="M22.0741 23.9168H21.0877V23.9612C21.0877 24.0803 21.115 24.1762 21.1714 24.2491C21.2278 24.3202 21.2933 24.3557 21.3716 24.3557C21.5008 24.3557 21.6027 24.2722 21.6773 24.1069L22.0286 24.1798C21.9594 24.3539 21.8684 24.4837 21.7538 24.569C21.6391 24.6543 21.5099 24.6987 21.3679 24.6987C21.1787 24.6987 21.0221 24.624 20.8966 24.4766C20.771 24.3291 20.7091 24.1265 20.7091 23.8724C20.7091 23.5987 20.7801 23.357 20.922 23.1473C21.064 22.9377 21.2642 22.8346 21.519 22.8346C21.6919 22.8346 21.832 22.9003 21.9394 23.0318C22.0468 23.1633 22.0995 23.3535 22.0995 23.6023C22.0995 23.7195 22.0904 23.8244 22.0722 23.9168H22.0741ZM21.7428 23.6236V23.5774C21.7428 23.4423 21.7192 23.341 21.67 23.2771C21.6209 23.2131 21.5572 23.1793 21.4771 23.1793C21.397 23.1793 21.3242 23.2167 21.2587 23.2913C21.1932 23.3659 21.1495 23.4779 21.1277 23.6236H21.741H21.7428Z" fill="white"/>
    <path d="M22.4945 22.8755H22.8621L22.8039 23.222C22.9404 22.9643 23.0914 22.8364 23.2534 22.8364C23.3098 22.8364 23.3717 22.8524 23.4372 22.8861L23.288 23.2806C23.2516 23.2646 23.2134 23.2575 23.1752 23.2575C23.1133 23.2575 23.055 23.2788 23.0004 23.3197C22.9186 23.3837 22.8549 23.4672 22.8112 23.5703C22.7675 23.6733 22.7238 23.851 22.682 24.1016L22.5855 24.6614H22.1942L22.4981 22.8772L22.4945 22.8755Z" fill="white"/>
    <path d="M25.0825 23.9879L25.4628 24.0643C25.3991 24.2757 25.3063 24.4357 25.1826 24.5405C25.0588 24.6454 24.9169 24.6987 24.7585 24.6987C24.5783 24.6987 24.4327 24.6329 24.3217 24.4997C24.2107 24.3682 24.1543 24.1798 24.1543 23.9363C24.1543 23.7178 24.1925 23.5241 24.2671 23.3535C24.3418 23.1829 24.4437 23.0532 24.5729 22.9661C24.7021 22.879 24.8386 22.8346 24.9842 22.8346C25.148 22.8346 25.2845 22.8879 25.39 22.9927C25.4956 23.0976 25.5557 23.2433 25.5684 23.4317L25.1953 23.4797C25.1771 23.286 25.0988 23.19 24.9624 23.19C24.8987 23.19 24.8368 23.2167 24.7749 23.2682C24.713 23.3215 24.6602 23.4157 24.6147 23.5507C24.5692 23.6858 24.5456 23.8333 24.5456 23.995C24.5456 24.1016 24.5674 24.1833 24.6093 24.2402C24.6511 24.2971 24.7039 24.3255 24.764 24.3255C24.8277 24.3255 24.8877 24.2989 24.946 24.2438C25.0042 24.1887 25.0515 24.1052 25.0861 23.9897L25.0825 23.9879Z" fill="white"/>
    <path d="M25.7195 23.9186C25.7195 23.6271 25.785 23.3784 25.916 23.1722C26.0616 22.9465 26.2727 22.8346 26.5475 22.8346C26.755 22.8346 26.9188 22.9057 27.0426 23.0461C27.1663 23.1864 27.2264 23.3837 27.2264 23.636C27.2264 23.931 27.1499 24.1833 26.9971 24.3895C26.8442 24.5956 26.644 24.6987 26.3965 24.6987C26.1945 24.6987 26.0325 24.6294 25.9051 24.489C25.7795 24.3486 25.7158 24.1585 25.7158 23.9186H25.7195ZM26.8387 23.5738C26.8387 23.4565 26.8114 23.3641 26.7568 23.2966C26.7022 23.2291 26.6313 23.1953 26.5475 23.1953C26.4766 23.1953 26.4092 23.2202 26.3473 23.27C26.2855 23.3197 26.2309 23.405 26.1835 23.5276C26.1362 23.6502 26.1126 23.7764 26.1126 23.9079C26.1126 24.0394 26.1417 24.1443 26.1981 24.2189C26.2545 24.2935 26.3273 24.3291 26.411 24.3291C26.5184 24.3291 26.6094 24.2722 26.684 24.1585C26.7878 24.0021 26.8387 23.8084 26.8387 23.5756V23.5738Z" fill="white"/>
    <path d="M27.6468 22.8755H28.018L27.9798 23.0923C28.1272 22.9217 28.2801 22.8346 28.4403 22.8346C28.655 22.8346 28.7788 22.9394 28.8134 23.1491C28.8661 23.0567 28.9407 22.9821 29.0354 22.9234C29.13 22.8648 29.2283 22.8346 29.3248 22.8346C29.4394 22.8346 29.5304 22.8719 29.5977 22.9448C29.6651 23.0176 29.6997 23.1207 29.6997 23.2522C29.6997 23.3144 29.6869 23.4192 29.6614 23.5703L29.4758 24.6596H29.0809L29.2665 23.5703C29.2902 23.4334 29.3011 23.357 29.3011 23.3393C29.3011 23.2877 29.2884 23.2486 29.2629 23.2202C29.2374 23.1936 29.201 23.1793 29.1555 23.1793C29.059 23.1793 28.9735 23.238 28.8952 23.357C28.8334 23.4494 28.7824 23.6129 28.7424 23.8475L28.6059 24.6596H28.2109L28.3948 23.5809C28.4166 23.4565 28.4257 23.3766 28.4257 23.341C28.4257 23.2913 28.4111 23.2504 28.3838 23.222C28.3565 23.1935 28.3201 23.1776 28.2783 23.1776C28.22 23.1776 28.16 23.2042 28.0981 23.2593C28.0362 23.3144 27.9871 23.3926 27.9507 23.4974C27.9289 23.5596 27.9034 23.6733 27.8743 23.8404L27.7341 24.6596H27.3428L27.6468 22.8755Z" fill="white"/>
    <path d="M30.1565 22.8755H30.5296L30.4986 23.0585C30.5805 22.975 30.6551 22.9163 30.7225 22.8843C30.7898 22.8524 30.8608 22.8364 30.9354 22.8364C31.0828 22.8364 31.2029 22.9003 31.2958 23.0283C31.3867 23.1562 31.4322 23.3481 31.4322 23.604C31.4322 23.931 31.3522 24.2047 31.1902 24.4268C31.0573 24.6098 30.899 24.7004 30.7188 24.7004C30.5387 24.7004 30.3876 24.6063 30.2911 24.4161L30.1328 25.3402H29.7415L30.1601 22.8772L30.1565 22.8755ZM30.3949 23.899C30.3949 24.0394 30.4222 24.1478 30.4768 24.2242C30.5314 24.3006 30.5933 24.3379 30.6642 24.3379C30.7206 24.3379 30.7771 24.3131 30.8335 24.2651C30.8881 24.2171 30.939 24.1265 30.9827 23.995C31.0264 23.8635 31.0501 23.7284 31.0501 23.5898C31.0501 23.4512 31.0246 23.3535 30.9736 23.2842C30.9227 23.2149 30.859 23.1776 30.7825 23.1776C30.7225 23.1776 30.666 23.2024 30.6096 23.2504C30.5532 23.2984 30.5041 23.3855 30.4604 23.5116C30.4167 23.6378 30.3949 23.7675 30.3949 23.9008V23.899Z" fill="white"/>
    <path d="M32.1384 23.3819L31.7544 23.341C31.7999 23.1758 31.8799 23.0514 31.9928 22.9643C32.1056 22.879 32.2494 22.8346 32.4241 22.8346C32.5988 22.8346 32.7371 22.879 32.8336 22.9661C32.9282 23.0549 32.9774 23.1722 32.9774 23.3179C32.9774 23.3695 32.9737 23.4228 32.9646 23.4814C32.9555 23.5401 32.9228 23.6982 32.8645 23.9559C32.8154 24.1691 32.7917 24.3166 32.7917 24.4019C32.7917 24.4801 32.8045 24.5654 32.8318 24.6578H32.4405C32.4241 24.5921 32.415 24.5245 32.4114 24.4552C32.3549 24.5334 32.2912 24.5938 32.2185 24.6365C32.1457 24.6774 32.0747 24.6987 32.0019 24.6987C31.889 24.6987 31.7926 24.6525 31.7161 24.5583C31.6397 24.4641 31.5997 24.3397 31.5997 24.1816C31.5997 24.0021 31.6452 23.8617 31.7362 23.7657C31.8272 23.668 31.9782 23.6094 32.1893 23.5898C32.3768 23.5703 32.5005 23.5472 32.5642 23.5205C32.5843 23.453 32.5952 23.3979 32.5952 23.357C32.5952 23.3037 32.577 23.2593 32.5406 23.2273C32.5042 23.1936 32.4532 23.1776 32.3913 23.1776C32.253 23.1776 32.1693 23.2451 32.1402 23.3801L32.1384 23.3819ZM32.4987 23.8279C32.4751 23.8351 32.4441 23.8422 32.4059 23.8493C32.2276 23.8759 32.1093 23.9115 32.051 23.9577C31.9946 24.0021 31.9655 24.0625 31.9655 24.1389C31.9655 24.1976 31.9819 24.2455 32.0146 24.2829C32.0474 24.3202 32.0874 24.3379 32.1384 24.3379C32.1893 24.3379 32.2403 24.322 32.2876 24.2917C32.3349 24.2615 32.3731 24.2189 32.4023 24.1638C32.4314 24.1087 32.4587 24.0181 32.4842 23.8919L32.4987 23.8279Z" fill="white"/>
    <path d="M33.4524 22.8755H33.8255L33.7872 23.1065C33.8837 23.0052 33.9729 22.9341 34.053 22.8932C34.133 22.8524 34.2168 22.8328 34.3023 22.8328C34.4188 22.8328 34.5116 22.8737 34.5826 22.9554C34.6517 23.0372 34.6881 23.1491 34.6881 23.2913C34.6881 23.3535 34.6736 23.4708 34.6444 23.6449L34.4734 24.656H34.0784L34.2513 23.6449C34.2768 23.4939 34.2896 23.4032 34.2896 23.373C34.2896 23.3091 34.275 23.2611 34.2441 23.2255C34.2131 23.1918 34.1731 23.174 34.1258 23.174C34.073 23.174 34.0184 23.1953 33.962 23.238C33.8819 23.2984 33.8237 23.3713 33.7836 23.453C33.7454 23.5365 33.7054 23.6929 33.6671 23.9221L33.5416 24.6543H33.1503L33.4542 22.8701L33.4524 22.8755Z" fill="white"/>
    <path d="M34.9829 22.8755H35.3742L35.4725 23.764C35.4962 23.9914 35.5107 24.1514 35.5144 24.2438C35.5653 24.0607 35.6363 23.867 35.7255 23.6662L36.0749 22.8755H36.4899L35.5926 24.8337C35.5089 25.0168 35.4434 25.1411 35.3979 25.2033C35.3524 25.2655 35.3014 25.3117 35.2432 25.3402C35.1868 25.3686 35.1213 25.3846 35.0485 25.3846C34.9666 25.3846 34.8719 25.3668 34.7682 25.3313L34.8028 24.9723C34.8501 24.9883 34.8956 24.9972 34.9393 24.9972C35.0594 24.9972 35.1595 24.8853 35.2377 24.6614L34.9848 22.8772L34.9829 22.8755Z" fill="white"/>
    <path d="M31.8108 17.7399C32.1184 18.2233 32.4551 18.5893 32.8209 18.8345C33.1867 19.0798 33.6398 19.2024 34.1804 19.2024C34.7737 19.2024 35.2651 18.9998 35.6527 18.5964C36.0403 18.193 36.2351 17.7044 36.2351 17.1286C36.2351 16.3396 35.7437 15.7337 34.7591 15.309C34.5407 15.2094 34.2932 15.1046 34.0166 14.9962C33.7381 14.886 33.4924 14.7812 33.2759 14.6799C33.0593 14.5786 32.8536 14.4649 32.6589 14.3369C31.9673 13.8856 31.6233 13.2263 31.6233 12.3573C31.6233 11.4884 31.9327 10.7989 32.5533 10.3227C33.1721 9.84643 33.9529 9.60831 34.8956 9.60831C35.7856 9.60831 36.4935 9.83399 37.0195 10.2853C36.9066 10.5164 36.7683 10.9144 36.6027 11.4795H36.468C36.317 11.0797 36.0822 10.7634 35.7637 10.5288C35.4452 10.2942 35.0721 10.177 34.6426 10.177C34.1167 10.177 33.6744 10.3404 33.3159 10.6656C32.9574 10.9926 32.779 11.4066 32.779 11.9078C32.779 12.4569 32.9847 12.9011 33.3978 13.2387C33.567 13.3738 33.76 13.4929 33.9784 13.5959C34.1967 13.7096 34.3878 13.7914 34.5535 13.8429C34.6954 13.9016 34.8283 13.9531 34.9502 13.9993C35.0721 14.0455 35.1631 14.0828 35.2232 14.1113C35.3469 14.1628 35.4707 14.2125 35.5926 14.2623C35.7146 14.3121 35.8147 14.36 35.8948 14.408C36.3752 14.6728 36.681 14.8807 36.812 15.0353C37.2288 15.5417 37.4381 16.0535 37.4381 16.5689C37.4381 17.2281 37.2761 17.8057 36.9503 18.2979C36.6246 18.7919 36.1841 19.1668 35.6236 19.4245C35.0649 19.684 34.4461 19.8119 33.7709 19.8119C33.3614 19.8119 32.9173 19.739 32.4387 19.5916C31.96 19.4441 31.6033 19.2468 31.3722 18.998C31.5032 18.664 31.596 18.2446 31.6488 17.7381H31.8126L31.8108 17.7399Z" fill="white"/>
    <path d="M11.3309 14.552V9.73804H11.5839L18.8346 17.3117L18.9238 17.4058C18.9529 17.0629 18.9693 16.5369 18.9693 15.8314V11.2201L18.9238 10.0792L18.9019 9.96372C19.1786 9.99215 19.3951 10.0081 19.548 10.0081C19.6117 10.0081 19.7336 9.99393 19.9138 9.96372C19.9065 9.99748 19.8992 10.0508 19.892 10.129C19.8847 10.2054 19.8774 10.2623 19.8701 10.2996L19.8028 11.7212L19.6627 15.1348L19.6172 18.3512L19.6627 19.9701H19.4606C19.0857 19.5489 18.7854 19.2113 18.5616 18.9554L16.1447 16.3485L12.0462 12.0784L12.0243 13.4289V16.711L12.0462 18.4187L12.1354 19.7906C12.0262 19.7622 11.8587 19.7462 11.6294 19.7462C11.4001 19.7462 11.229 19.7604 11.1235 19.7906C11.1835 18.9447 11.2218 18.3157 11.2363 17.9016L11.3328 14.5537L11.3309 14.552Z" fill="white"/>
    <path d="M29.3812 11.5719C29.3593 11.547 29.3375 11.5204 29.3138 11.4902C29.2902 11.4617 29.2611 11.4369 29.2247 11.4138C28.4967 10.7065 27.6504 10.3511 26.6895 10.3511C25.8559 10.3511 25.1443 10.5555 24.5547 10.9642C23.965 11.3729 23.5228 11.922 23.2279 12.6115C22.9331 13.3009 22.7857 14.0562 22.7857 14.8772C22.7857 15.3285 22.8658 15.922 23.0277 16.6542C23.1824 17.1748 23.4172 17.6262 23.7321 18.0082C24.0651 18.4418 24.4873 18.7759 24.9969 19.0105C25.5065 19.245 26.0416 19.3623 26.6003 19.3623C27.5594 19.3623 28.4985 19.0211 29.4212 18.3388C29.4922 18.2659 29.5668 18.2304 29.6414 18.2304L29.5122 19.0922C28.726 19.6271 27.6886 19.8937 26.4001 19.8937C25.3809 19.8937 24.4928 19.6875 23.7375 19.2753C22.9822 18.863 22.4053 18.2748 22.0086 17.5107C21.6118 16.7466 21.4135 15.8456 21.4135 14.8096C21.4135 14.1237 21.559 13.4324 21.8521 12.7394C22.1451 12.0464 22.5418 11.4866 23.0441 11.0601C24.016 10.2285 25.2535 9.81445 26.7532 9.81445C27.8015 9.81445 28.8079 10.0295 29.7743 10.4595C29.6669 10.7456 29.5704 11.1081 29.4831 11.5488L29.3757 11.5701L29.3812 11.5719Z" fill="white"/>
  </g>
  <defs>
    <clipPath id="clip0_797_27597">
      <rect width="122" height="35" fill="white"/>
    </clipPath>
  </defs>
</svg>