<svg width="116" height="35" viewBox="0 0 116 35" fill="none" xmlns="http://www.w3.org/2000/svg">
<path d="M0 0.019989H8.8C10.72 0.019989 12.15 0.58999 13.11 1.73999C14.06 2.88999 14.54 4.51999 14.54 6.63999C14.54 8.75999 14.02 10.52 12.98 11.75C11.94 12.98 10.35 13.59 8.22 13.59H5.32V21.6H0V0.019989ZM5.32 9.21999H6.62C7.64 9.21999 8.36 9 8.77 8.55C9.18 8.1 9.39 7.52999 9.39 6.83999C9.39 6.14999 9.21 5.58999 8.85 5.11999C8.49 4.64999 7.82 4.41 6.83 4.41H5.32V9.21999Z" fill="#025596"/>
<path d="M24.8 18.04H18.77L17.93 21.61H12.51L18.97 0H24.76L31.22 21.61H25.66L24.8 18.04ZM23.7 13.36L21.8 5.59L19.92 13.36H23.7Z" fill="#025596"/>
<path d="M31.96 21.6V0.019989H40.78C42.42 0.019989 43.67 0.199988 44.53 0.549988C45.39 0.899988 46.09 1.55999 46.62 2.51999C47.15 3.47999 47.41 4.63998 47.41 6.01998C47.41 7.21998 47.21 8.24999 46.8 9.11999C46.39 9.98999 45.84 10.69 45.13 11.23C44.68 11.57 44.06 11.86 43.27 12.08C43.9 12.35 44.36 12.61 44.65 12.88C44.84 13.06 45.13 13.44 45.5 14.01C45.87 14.59 46.12 15.04 46.24 15.35L48.8 21.6H42.82L39.99 15C39.63 14.15 39.31 13.59 39.03 13.34C38.65 13.01 38.22 12.84 37.73 12.84H37.26V21.6H31.94H31.96ZM37.28 8.76998H39.51C39.75 8.76998 40.22 8.66999 40.91 8.47999C41.26 8.38999 41.55 8.17 41.77 7.8C41.99 7.44 42.1 7.02 42.1 6.55C42.1 5.85 41.92 5.31999 41.57 4.94999C41.22 4.57999 40.56 4.38999 39.6 4.38999H37.28V8.77999V8.76998Z" fill="#025596"/>
<path d="M48.02 0.019989H64.11V5.34998H58.71V21.6H53.42V5.34998H48.02V0.019989Z" fill="#025596"/>
<path d="M65.03 0.019989H69.97L76.42 11.96V0.019989H81.41V21.6H76.42L70.01 9.74999V21.6H65.03V0.019989Z" fill="#025596"/>
<path d="M82.86 0.019989H97.04V4.62998H88.16V8.05999H96.4V12.46H88.16V16.71H97.3V21.6H82.86V0.019989Z" fill="#025596"/>
<path d="M98.42 21.6V0.019989H107.24C108.88 0.019989 110.13 0.199988 110.99 0.549988C111.85 0.899988 112.55 1.55999 113.08 2.51999C113.61 3.47999 113.87 4.63998 113.87 6.01998C113.87 7.21998 113.67 8.24999 113.26 9.11999C112.85 9.98999 112.3 10.69 111.59 11.23C111.14 11.57 110.52 11.86 109.73 12.08C110.36 12.35 110.82 12.61 111.11 12.88C111.3 13.06 111.59 13.44 111.96 14.01C112.33 14.58 112.58 15.04 112.7 15.35L115.26 21.6H109.28L106.45 15C106.09 14.15 105.77 13.59 105.49 13.34C105.11 13.01 104.68 12.84 104.19 12.84H103.72V21.6H98.4H98.42ZM103.74 8.76998H105.97C106.21 8.76998 106.68 8.66999 107.37 8.47999C107.72 8.38999 108.01 8.17 108.23 7.8C108.45 7.44 108.56 7.02 108.56 6.55C108.56 5.85 108.38 5.31999 108.03 4.94999C107.68 4.57999 107.02 4.38999 106.06 4.38999H103.74V8.77999V8.76998Z" fill="#025596"/>
<path d="M78.82 30.45V32.64H71.93V23.48H78.82V25.59H74.69V26.92H78.03V28.95H74.69V30.45H78.82Z" fill="#2B743A"/>
<path d="M86.51 32.64H83.83V28.35C83.83 28 83.78 27.77 83.67 27.67C83.56 27.57 83.42 27.52 83.26 27.52C82.77 27.52 82.53 27.86 82.53 28.54V32.64H79.85V25.82H82.33V26.79C82.7 26.05 83.35 25.68 84.3 25.68C84.8 25.68 85.22 25.78 85.56 25.97C85.9 26.16 86.15 26.41 86.29 26.71C86.44 27.01 86.51 27.54 86.51 28.28V32.65V32.64Z" fill="#2B743A"/>
<path d="M92.42 30.19L94.92 30.36C94.77 31.03 94.4 31.6 93.79 32.07C93.18 32.54 92.36 32.78 91.33 32.78C90.18 32.78 89.26 32.45 88.58 31.78C87.9 31.11 87.55 30.29 87.55 29.31C87.55 28.33 87.89 27.43 88.56 26.73C89.24 26.03 90.14 25.68 91.26 25.68C92.38 25.68 93.23 26.01 93.91 26.67C94.58 27.33 94.92 28.23 94.92 29.37C94.92 29.46 94.92 29.59 94.92 29.76H90.35C90.35 30.19 90.44 30.51 90.58 30.72C90.72 30.93 91 31.03 91.4 31.03C91.98 31.03 92.32 30.75 92.43 30.19H92.42ZM92.24 28.42C92.24 27.96 92.14 27.65 91.96 27.49C91.78 27.33 91.56 27.25 91.29 27.25C90.66 27.25 90.34 27.64 90.34 28.42H92.24Z" fill="#2B743A"/>
<path d="M98.53 32.64H95.97V25.82H98.2V27.23C98.45 26.21 99.05 25.69 99.98 25.69C100.07 25.69 100.2 25.69 100.37 25.72V28.1C100.18 28.06 100.01 28.03 99.87 28.03C98.98 28.03 98.54 28.52 98.54 29.51V32.64H98.53Z" fill="#2B743A"/>
<path d="M108.32 24.27L108.25 26.1H108.12C107.88 26.08 107.71 26.07 107.6 26.07C107.18 26.07 106.93 26.15 106.85 26.32C107.36 26.74 107.61 27.25 107.61 27.84C107.61 28.54 107.33 29.06 106.78 29.41C106.23 29.76 105.48 29.94 104.53 29.94C104.51 29.94 104.39 29.94 104.18 29.93C103.98 29.93 103.88 29.92 103.87 29.92C103.44 29.92 103.22 30.03 103.22 30.26C103.22 30.46 103.41 30.56 103.8 30.58L105.99 30.67C106.79 30.71 107.38 30.93 107.75 31.34C108.12 31.75 108.31 32.23 108.31 32.78C108.31 33.43 108.03 33.97 107.47 34.38C106.91 34.79 105.83 35 104.22 35C101.74 35 100.5 34.43 100.5 33.29C100.5 32.67 100.83 32.23 101.49 31.99C101.06 31.69 100.85 31.34 100.85 30.92C100.85 30.25 101.29 29.74 102.16 29.4C101.43 29.08 101.07 28.55 101.07 27.82C101.07 27.14 101.37 26.62 101.96 26.24C102.55 25.86 103.36 25.68 104.39 25.68C104.86 25.68 105.29 25.73 105.67 25.82C105.83 24.75 106.39 24.22 107.37 24.22C107.59 24.22 107.91 24.24 108.32 24.27ZM103.72 32.55C103.62 32.55 103.52 32.55 103.42 32.55C102.96 32.55 102.73 32.69 102.73 32.98C102.73 33.24 102.91 33.41 103.26 33.49C103.61 33.57 104.08 33.6 104.67 33.6C105.22 33.6 105.58 33.55 105.74 33.46C105.9 33.37 105.98 33.24 105.98 33.07C105.98 32.95 105.94 32.86 105.87 32.78C105.8 32.7 105.63 32.66 105.36 32.64L103.72 32.55ZM104.4 28.67C104.92 28.67 105.18 28.39 105.18 27.84C105.18 27.29 104.91 26.99 104.38 26.99C103.85 26.99 103.59 27.28 103.59 27.85C103.59 28.39 103.86 28.66 104.4 28.66V28.67Z" fill="#2B743A"/>
<path d="M115.41 25.82L112.73 33.21C112.52 33.77 112.23 34.21 111.84 34.52C111.45 34.83 110.86 34.99 110.06 34.99C109.87 34.99 109.42 34.97 108.72 34.93V33.03C109.07 33.08 109.39 33.11 109.69 33.11C110.46 33.11 110.84 32.94 110.84 32.6C110.84 32.49 110.8 32.33 110.73 32.14L108.28 25.81H111.14L112.27 29.45L113.45 25.81H115.41V25.82Z" fill="#2B743A"/>
</svg>
