<svg width="120" height="35" viewBox="0 0 120 35" fill="none" xmlns="http://www.w3.org/2000/svg">
<path d="M8.55 25.46L5.75 34.85H2.93L0 25.46H2.92L4.35 30.58C4.45 30.88 4.53 31.18 4.61 31.47L6.28 25.46H8.56H8.55Z" fill="#AD8F42"/>
<path d="M15.61 34.84H13.1C13.04 34.54 13.01 34.22 13.01 33.86C12.54 34.61 11.82 34.98 10.85 34.98C10.06 34.98 9.45998 34.77 9.06998 34.35C8.67998 33.93 8.47998 33.44 8.47998 32.9C8.47998 32.16 8.79998 31.57 9.44998 31.11C10.1 30.65 11.24 30.38 12.88 30.29V30.13C12.88 29.82 12.81 29.62 12.68 29.52C12.55 29.42 12.35 29.37 12.09 29.37C11.48 29.37 11.14 29.63 11.07 30.13L8.66998 29.89C9.00998 28.43 10.18 27.7 12.18 27.7C12.72 27.7 13.22 27.76 13.67 27.87C14.12 27.98 14.48 28.16 14.75 28.4C15.02 28.64 15.19 28.89 15.28 29.16C15.37 29.43 15.42 29.94 15.42 30.7V33.49C15.42 34.02 15.49 34.47 15.63 34.85L15.61 34.84ZM12.87 31.57C11.75 31.69 11.18 32.07 11.18 32.69C11.18 33.11 11.4 33.32 11.85 33.32C12.13 33.32 12.37 33.23 12.57 33.06C12.77 32.89 12.87 32.5 12.87 31.9V31.56V31.57Z" fill="#AD8F42"/>
<path d="M19.37 25.46V34.85H16.77V25.46H19.37Z" fill="#AD8F42"/>
<path d="M27.29 27.85V34.84H24.85V33.69C24.49 34.55 23.8 34.98 22.76 34.98C22.12 34.98 21.63 34.8 21.28 34.43C20.93 34.06 20.75 33.53 20.75 32.84V27.84H23.39V32.24C23.39 32.51 23.42 32.71 23.5 32.82C23.58 32.93 23.71 32.99 23.93 32.99C24.15 32.99 24.34 32.9 24.48 32.74C24.62 32.57 24.69 32.34 24.69 32.03V27.83H27.3L27.29 27.85Z" fill="#AD8F42"/>
<path d="M35.45 34.84H32.94C32.88 34.54 32.85 34.22 32.85 33.86C32.38 34.61 31.66 34.98 30.69 34.98C29.9 34.98 29.3 34.77 28.91 34.35C28.52 33.93 28.32 33.44 28.32 32.9C28.32 32.16 28.64 31.57 29.29 31.11C29.94 30.65 31.08 30.38 32.72 30.29V30.13C32.72 29.82 32.65 29.62 32.52 29.52C32.39 29.42 32.19 29.37 31.93 29.37C31.32 29.37 30.98 29.63 30.91 30.13L28.51 29.89C28.85 28.43 30.02 27.7 32.02 27.7C32.56 27.7 33.06 27.76 33.51 27.87C33.96 27.98 34.32 28.16 34.59 28.4C34.86 28.64 35.03 28.89 35.12 29.16C35.21 29.43 35.26 29.94 35.26 30.7V33.49C35.26 34.02 35.33 34.47 35.47 34.85L35.45 34.84ZM32.71 31.57C31.59 31.69 31.02 32.07 31.02 32.69C31.02 33.11 31.24 33.32 31.69 33.32C31.97 33.32 32.21 33.23 32.41 33.06C32.61 32.89 32.71 32.5 32.71 31.9V31.56V31.57Z" fill="#AD8F42"/>
<path d="M40.75 27.85V29.63H39.41V32.21C39.41 32.57 39.47 32.77 39.6 32.84C39.73 32.9 39.86 32.94 40 32.94C40.21 32.94 40.46 32.9 40.75 32.82V34.78C40.23 34.89 39.72 34.94 39.22 34.94C38.41 34.94 37.81 34.76 37.43 34.4C37.05 34.04 36.86 33.46 36.86 32.67V31.85V29.64H35.85V27.86H36.86L36.9 25.58L39.4 25.54V27.86H40.74L40.75 27.85Z" fill="#AD8F42"/>
<path d="M44.27 25.16V27.33H41.63V25.16H44.27ZM44.27 27.85V34.84H41.63V27.85H44.27Z" fill="#AD8F42"/>
<path d="M48.94 34.99C47.83 34.99 46.94 34.63 46.28 33.91C45.63 33.19 45.3 32.34 45.3 31.37C45.3 30.33 45.64 29.45 46.33 28.76C47.02 28.07 47.9 27.72 49 27.72C50.1 27.72 50.99 28.06 51.67 28.75C52.35 29.44 52.68 30.3 52.68 31.33C52.68 32.36 52.34 33.25 51.66 33.95C50.98 34.65 50.08 35 48.95 35L48.94 34.99ZM48.98 33.33C49.39 33.33 49.64 33.11 49.73 32.67C49.82 32.23 49.87 31.77 49.87 31.28C49.87 30.63 49.81 30.15 49.68 29.86C49.55 29.57 49.32 29.43 48.99 29.43C48.69 29.43 48.46 29.58 48.32 29.87C48.18 30.17 48.11 30.66 48.11 31.34C48.11 32.14 48.18 32.67 48.33 32.93C48.48 33.19 48.69 33.32 48.98 33.32V33.33Z" fill="#AD8F42"/>
<path d="M60.25 34.84H57.61V30.44C57.61 30.08 57.55 29.85 57.45 29.75C57.35 29.65 57.21 29.6 57.04 29.6C56.56 29.6 56.32 29.95 56.32 30.64V34.84H53.68V27.85H56.12V28.84C56.48 28.08 57.13 27.71 58.05 27.71C58.54 27.71 58.95 27.81 59.29 28C59.63 28.19 59.87 28.44 60.01 28.76C60.16 29.07 60.23 29.61 60.23 30.37V34.85L60.25 34.84Z" fill="#AD8F42"/>
<path d="M70.09 34.84L69.58 32.99H67.16L66.62 34.84H64.37L67.16 25.45H70.09L72.92 34.84H70.09ZM67.63 30.94H69.09L68.36 28.21L67.63 30.94Z" fill="#AD8F42"/>
<path d="M80.21 34.84H77.74V33.91C77.38 34.62 76.77 34.98 75.93 34.98C75.16 34.98 74.53 34.66 74.04 34.03C73.55 33.4 73.32 32.48 73.32 31.28C73.32 30.15 73.56 29.26 74.05 28.61C74.53 27.95 75.18 27.62 75.97 27.62C76.63 27.62 77.19 27.89 77.61 28.41V25.45H80.21V34.84ZM77.62 30.35C77.62 29.72 77.37 29.41 76.88 29.41C76.53 29.41 76.3 29.61 76.2 30.01C76.1 30.41 76.04 30.9 76.04 31.47C76.04 32.6 76.32 33.17 76.87 33.17C77.08 33.17 77.26 33.08 77.41 32.9C77.56 32.72 77.63 32.45 77.63 32.08V30.35H77.62Z" fill="#AD8F42"/>
<path d="M87.8 27.85L85.34 34.84H83.37L80.85 27.85H83.56L84.52 30.82C84.6 31.06 84.67 31.3 84.73 31.54C84.75 31.46 84.79 31.35 84.83 31.22C84.83 31.2 84.87 31.11 84.92 30.96L85.91 27.85H87.8Z" fill="#AD8F42"/>
<path d="M91.08 25.16V27.33H88.44V25.16H91.08ZM91.08 27.85V34.84H88.44V27.85H91.08Z" fill="#AD8F42"/>
<path d="M91.88 32.86L93.96 32.56C94.08 33.06 94.55 33.32 95.37 33.32C96.05 33.32 96.39 33.18 96.39 32.91C96.39 32.79 96.33 32.7 96.19 32.63C96.06 32.57 95.75 32.5 95.25 32.43C93.89 32.23 93.03 31.93 92.7 31.51C92.36 31.09 92.19 30.62 92.19 30.11C92.19 29.4 92.48 28.81 93.05 28.37C93.62 27.93 94.37 27.71 95.3 27.71C96.93 27.71 97.97 28.32 98.42 29.55L96.43 29.94C96.25 29.53 95.86 29.32 95.26 29.32C94.98 29.32 94.77 29.36 94.63 29.44C94.49 29.52 94.42 29.6 94.42 29.68C94.42 29.91 94.63 30.05 95.05 30.1C96.15 30.23 96.9 30.36 97.29 30.49C97.68 30.62 98.02 30.87 98.3 31.22C98.58 31.58 98.71 32 98.71 32.5C98.71 33.27 98.4 33.87 97.79 34.32C97.18 34.77 96.33 35 95.25 35C93.43 35 92.31 34.29 91.87 32.87L91.88 32.86Z" fill="#AD8F42"/>
<path d="M102.92 34.99C101.81 34.99 100.92 34.63 100.26 33.91C99.61 33.19 99.28 32.34 99.28 31.37C99.28 30.33 99.62 29.45 100.31 28.76C100.99 28.06 101.88 27.72 102.98 27.72C104.08 27.72 104.97 28.06 105.65 28.75C106.33 29.44 106.66 30.3 106.66 31.33C106.66 32.36 106.32 33.25 105.64 33.95C104.96 34.65 104.06 35 102.93 35L102.92 34.99ZM102.96 33.33C103.37 33.33 103.62 33.11 103.71 32.67C103.8 32.23 103.85 31.77 103.85 31.28C103.85 30.63 103.79 30.15 103.66 29.86C103.53 29.57 103.3 29.43 102.97 29.43C102.67 29.43 102.44 29.58 102.3 29.87C102.16 30.17 102.09 30.66 102.09 31.34C102.09 32.14 102.16 32.67 102.31 32.93C102.46 33.19 102.67 33.32 102.96 33.32V33.33Z" fill="#AD8F42"/>
<path d="M110.2 34.84H107.68V27.85H109.87V29.3C110.12 28.25 110.7 27.73 111.62 27.73C111.71 27.73 111.84 27.73 112.01 27.76V30.2C111.83 30.15 111.66 30.13 111.51 30.13C110.64 30.13 110.2 30.64 110.2 31.65V34.85V34.84Z" fill="#AD8F42"/>
<path d="M112.29 32.86L114.37 32.56C114.49 33.06 114.96 33.32 115.78 33.32C116.46 33.32 116.8 33.18 116.8 32.91C116.8 32.79 116.74 32.7 116.6 32.63C116.46 32.56 116.16 32.5 115.66 32.43C114.3 32.23 113.44 31.93 113.11 31.51C112.78 31.09 112.6 30.62 112.6 30.11C112.6 29.4 112.89 28.81 113.46 28.37C114.03 27.93 114.78 27.71 115.71 27.71C117.34 27.71 118.38 28.32 118.83 29.55L116.84 29.94C116.66 29.53 116.27 29.32 115.67 29.32C115.39 29.32 115.18 29.36 115.04 29.44C114.9 29.52 114.83 29.6 114.83 29.68C114.83 29.91 115.04 30.05 115.46 30.1C116.56 30.23 117.31 30.36 117.7 30.49C118.09 30.62 118.43 30.87 118.71 31.22C118.99 31.57 119.12 32 119.12 32.5C119.12 33.27 118.81 33.87 118.2 34.32C117.59 34.77 116.74 35 115.66 35C113.84 35 112.72 34.29 112.28 32.87L112.29 32.86Z" fill="#AD8F42"/>
<path d="M0.0200195 0.019989H9.12002C11.1 0.019989 12.59 0.609988 13.57 1.79999C14.56 2.98999 15.05 4.67 15.05 6.87C15.05 9.06999 14.51 10.88 13.44 12.15C12.37 13.42 10.72 14.05 8.52002 14.05H5.53002V22.33H0.04002V0.019989H0.0200195ZM5.51002 9.53H6.85002C7.91002 9.53 8.65002 9.3 9.07002 8.84C9.50002 8.38 9.71002 7.79001 9.71002 7.07001C9.71002 6.35001 9.53002 5.78001 9.15002 5.29001C8.78002 4.80001 8.08002 4.56 7.06002 4.56H5.50002V9.54001L5.51002 9.53Z" fill="#025498"/>
<path d="M25.65 18.65H19.42L18.55 22.34H12.94L19.62 0H25.61L32.29 22.34H26.54L25.65 18.65ZM24.51 13.82L22.55 5.79001L20.61 13.82H24.52H24.51Z" fill="#025498"/>
<path d="M33.06 22.33V0.019989H42.18C43.87 0.019989 45.16 0.200007 46.06 0.570007C46.95 0.930007 47.67 1.61001 48.22 2.60001C48.77 3.59001 49.04 4.79 49.04 6.22C49.04 7.46 48.83 8.53001 48.41 9.42001C47.99 10.31 47.41 11.05 46.68 11.6C46.21 11.96 45.57 12.25 44.76 12.48C45.41 12.75 45.89 13.03 46.18 13.3C46.38 13.48 46.67 13.87 47.06 14.47C47.44 15.07 47.7 15.53 47.83 15.86L50.48 22.32H44.3L41.37 15.5C41 14.62 40.67 14.05 40.38 13.78C39.99 13.43 39.54 13.26 39.04 13.26H38.56V22.32H33.06V22.33ZM38.55 9.06H40.86C41.11 9.06 41.59 8.96001 42.31 8.76001C42.67 8.67001 42.97 8.43 43.2 8.06C43.43 7.69 43.54 7.24999 43.54 6.76999C43.54 6.04999 43.36 5.50002 43 5.11002C42.64 4.72002 41.96 4.53 40.96 4.53H38.56V9.06H38.55Z" fill="#025498"/>
<path d="M49.65 0.019989H66.28V5.53H60.7V22.33H55.23V5.53H49.65V0.019989Z" fill="#025498"/>
<path d="M67.24 0.019989H72.35L79.02 12.36V0.019989H84.18V22.33H79.02L72.39 10.08V22.33H67.24V0.019989Z" fill="#025498"/>
<path d="M85.67 0.019989H100.33V4.78H91.15V8.33002H99.67V12.88H91.15V17.28H100.6V22.33H85.67V0.019989Z" fill="#025498"/>
<path d="M101.76 22.33V0.019989H110.88C112.57 0.019989 113.86 0.200007 114.76 0.570007C115.65 0.930007 116.37 1.61001 116.92 2.60001C117.47 3.59001 117.74 4.79 117.74 6.22C117.74 7.46 117.53 8.53001 117.11 9.42001C116.69 10.31 116.11 11.05 115.38 11.6C114.91 11.96 114.27 12.25 113.46 12.48C114.11 12.75 114.59 13.03 114.88 13.3C115.08 13.48 115.37 13.87 115.76 14.47C116.14 15.07 116.4 15.53 116.53 15.86L119.18 22.32H113L110.07 15.5C109.7 14.62 109.37 14.05 109.08 13.78C108.69 13.43 108.24 13.26 107.74 13.26H107.26V22.32H101.76V22.33ZM107.26 9.06H109.57C109.82 9.06 110.3 8.96001 111.02 8.76001C111.38 8.67001 111.68 8.43 111.91 8.06C112.14 7.69 112.25 7.24999 112.25 6.76999C112.25 6.04999 112.07 5.50002 111.71 5.11002C111.35 4.72002 110.67 4.53 109.67 4.53H107.27V9.06H107.26Z" fill="#025498"/>
</svg>
