<svg width="171" height="32" viewBox="0 0 171 32" fill="none" xmlns="http://www.w3.org/2000/svg">
<path d="M0 0H13.0763C15.9236 0 18.0569 0.85121 19.476 2.55363C20.8938 4.25605 21.6027 6.67912 21.6027 9.82155C21.6027 12.964 20.8298 15.5764 19.2841 17.395C17.7383 19.2136 15.3792 20.1235 12.2068 20.1235H7.90111V31.9974H0V0ZM7.90111 13.6415H9.82938C11.3464 13.6415 12.4104 13.3112 13.0253 12.648C13.6389 11.9861 13.9457 11.1388 13.9457 10.1048C13.9457 9.07087 13.6794 8.24968 13.1468 7.55122C12.6141 6.85276 11.6127 6.50418 10.1427 6.50418H7.90241V13.6415H7.90111Z" fill="#005199"/>
<path d="M36.6529 26.7152H27.7217L26.4815 31.9974H18.4485L28.0168 0H36.5981L46.165 31.9974H37.9271L36.6529 26.7152ZM35.021 19.7958L32.2115 8.29277L29.4307 19.7958H35.021Z" fill="#005199"/>
<path d="M47.203 31.9974V0H60.3145C62.7454 0 64.6045 0.262413 65.8891 0.785933C67.1737 1.30945 68.2103 2.28077 68.9976 3.69989C69.7848 5.11901 70.1791 6.84623 70.1791 8.88418C70.1791 10.6597 69.8775 12.1911 69.2757 13.4784C68.6738 14.7656 67.8448 15.81 66.7912 16.6103C66.1189 17.1195 65.1985 17.5412 64.0287 17.8767C64.9661 18.2697 65.6489 18.6639 66.0771 19.0569C66.3669 19.3193 66.786 19.8794 67.3356 20.7397C67.8853 21.5988 68.2521 22.262 68.4375 22.7281L72.2471 32H63.3577L59.1525 22.2215C58.6199 20.9552 58.1447 20.134 57.7282 19.7554C57.1603 19.2606 56.518 19.0138 55.7999 19.0138H55.1054V32H47.2043L47.203 31.9974ZM55.1041 12.9653H58.4214C58.7805 12.9653 59.475 12.8204 60.5051 12.5292C61.026 12.3987 61.4516 12.0632 61.7819 11.5253C62.1122 10.9874 62.2767 10.3686 62.2767 9.67011C62.2767 8.63743 62.0156 7.84366 61.4947 7.29142C60.9738 6.73918 59.9946 6.4624 58.5598 6.4624H55.1041V12.9666V12.9653Z" fill="#005199"/>
<path d="M70.8345 0H94.748V7.9011H86.7242V31.9974H78.857V7.9011H70.8332V0H70.8345Z" fill="#005199"/>
<path d="M95.8786 0H103.225L112.811 17.7031V0H120.227V31.9974H112.811L103.277 14.4288V31.9974H95.8786V0Z" fill="#005199"/>
<path d="M121.85 0H142.933V6.83187H129.734V11.9169H141.978V18.4433H129.734V24.7517H143.315V31.9974H121.85V0Z" fill="#005199"/>
<path d="M145.368 31.9974V0H158.479C160.91 0 162.769 0.262413 164.054 0.785933C165.338 1.30945 166.375 2.28077 167.162 3.69989C167.949 5.11901 168.342 6.84623 168.342 8.88418C168.342 10.6597 168.041 12.1911 167.439 13.4784C166.837 14.7656 166.008 15.81 164.955 16.6103C164.282 17.1195 163.362 17.5412 162.192 17.8767C163.129 18.2697 163.812 18.6639 164.24 19.0569C164.529 19.3193 164.949 19.8794 165.499 20.7397C166.049 21.5988 166.415 22.262 166.601 22.7281L170.41 32H161.521L157.316 22.2215C156.783 20.9552 156.308 20.134 155.891 19.7554C155.324 19.2606 154.681 19.0138 153.963 19.0138H153.269V32H145.368V31.9974ZM153.269 12.9653H156.586C156.945 12.9653 157.64 12.8204 158.67 12.5292C159.191 12.3987 159.616 12.0632 159.946 11.5253C160.277 10.9874 160.441 10.3686 160.441 9.67011C160.441 8.63743 160.18 7.84366 159.659 7.29142C159.138 6.73918 158.159 6.4624 156.724 6.4624H153.269V12.9666V12.9653Z" fill="#005199"/>
</svg>
