<svg width="127" height="35" viewBox="0 0 127 35" fill="none" xmlns="http://www.w3.org/2000/svg">
<path d="M0.0100002 0H9.68C11.78 0 13.37 0.63 14.41 1.89C15.46 3.14 15.98 4.94 15.98 7.27C15.98 9.6 15.41 11.53 14.26 12.87C13.12 14.21 11.37 14.89 9.03 14.89H5.84V23.66H0V0H0.0100002ZM5.85 10.09H7.28C8.4 10.09 9.19 9.85 9.64 9.36C10.09 8.87 10.33 8.24 10.33 7.48C10.33 6.72 10.14 6.11 9.74 5.59C9.34 5.07 8.6 4.82 7.52 4.82H5.86V10.1L5.85 10.09Z" fill="#005399"/>
<path d="M27.12 19.76H20.52L19.6 23.67H13.66L20.73 0H27.07L34.15 23.66H28.06L27.12 19.76ZM25.91 14.64L23.83 6.13L21.77 14.63H25.91V14.64Z" fill="#005399"/>
<path d="M34.92 23.66V0H44.61C46.41 0 47.79 0.19 48.73 0.58C49.67 0.97 50.45 1.69 51.03 2.73C51.61 3.78 51.9 5.06 51.9 6.56C51.9 7.87 51.68 9 51.23 9.96C50.79 10.92 50.17 11.69 49.4 12.28C48.91 12.66 48.22 12.97 47.35 13.22C48.04 13.51 48.55 13.8 48.87 14.09C49.08 14.28 49.39 14.7 49.8 15.34C50.21 15.98 50.48 16.47 50.61 16.81L53.43 23.66H46.86L43.75 16.43C43.35 15.49 43.01 14.89 42.7 14.61C42.28 14.24 41.8 14.06 41.27 14.06H40.76V23.66H34.93H34.92ZM40.76 9.58H43.21C43.47 9.58 43.99 9.47 44.75 9.26C45.14 9.16 45.44 8.91 45.7 8.52C45.94 8.12 46.07 7.66 46.07 7.15C46.07 6.39 45.88 5.8 45.49 5.39C45.1 4.98 44.38 4.77 43.32 4.77H40.76V9.58Z" fill="#005399"/>
<path d="M52.39 0H70.07V5.84H64.13V23.66H58.31V5.84H52.38V0H52.39Z" fill="#005399"/>
<path d="M70.9 0H76.33L83.41 13.09V0H88.89V23.66H83.41L76.36 10.67V23.66H70.89V0H70.9Z" fill="#005399"/>
<path d="M90.34 0H105.93V5.05H96.17V8.81H105.22V13.64H96.17V18.3H106.21V23.66H90.34V0Z" fill="#005399"/>
<path d="M107.5 23.66V0H117.19C118.99 0 120.37 0.19 121.31 0.58C122.26 0.97 123.03 1.69 123.61 2.73C124.19 3.78 124.48 5.06 124.48 6.56C124.48 7.87 124.26 9 123.81 9.96C123.36 10.92 122.75 11.69 121.98 12.28C121.49 12.66 120.8 12.97 119.93 13.22C120.62 13.51 121.13 13.8 121.45 14.09C121.66 14.28 121.97 14.7 122.38 15.34C122.79 15.98 123.06 16.47 123.19 16.81L126.01 23.66H119.44L116.33 16.43C115.93 15.49 115.59 14.89 115.28 14.61C114.86 14.24 114.38 14.06 113.85 14.06H113.34V23.66H107.51H107.5ZM113.34 9.58H115.79C116.05 9.58 116.57 9.47 117.33 9.26C117.72 9.16 118.02 8.91 118.28 8.52C118.52 8.12 118.65 7.66 118.65 7.15C118.65 6.39 118.46 5.8 118.07 5.39C117.68 4.98 116.96 4.77 115.9 4.77H113.34V9.58Z" fill="#005399"/>
<path d="M125.08 26.82C125.61 26.82 126.04 27.24 126.04 27.78C126.04 28.32 125.62 28.74 125.08 28.74C124.54 28.74 124.12 28.32 124.12 27.78C124.12 27.24 124.54 26.82 125.08 26.82ZM125.74 27.78C125.74 27.35 125.47 27.08 125.08 27.08C124.69 27.08 124.42 27.35 124.42 27.78C124.42 28.21 124.69 28.48 125.08 28.48C125.47 28.48 125.74 28.21 125.74 27.78ZM124.7 27.27H125.09C125.36 27.27 125.52 27.34 125.52 27.58C125.52 27.77 125.4 27.84 125.24 27.85L125.5 28.29H125.25L125.02 27.86H124.93V28.29H124.7V27.27ZM124.93 27.69H125.13C125.23 27.69 125.27 27.66 125.27 27.55C125.27 27.44 125.21 27.43 125.13 27.43H124.93V27.68V27.69Z" fill="#606062"/>
<path d="M4.67001 31.83V33.35H0.0700073V26.98H4.67001V28.45H1.91001V29.38H4.14001V30.79H1.91001V31.83H4.67001Z" fill="#606062"/>
<path d="M9.80003 33.35H8.01003V30.37C8.01003 30.13 7.97003 29.96 7.90003 29.9C7.82003 29.83 7.74003 29.79 7.62003 29.79C7.29003 29.79 7.13003 30.02 7.13003 30.49V33.35H5.34003V28.6H7.00003V29.28C7.24003 28.77 7.69003 28.51 8.31003 28.51C8.64003 28.51 8.92003 28.58 9.15003 28.71C9.38003 28.84 9.55003 29.01 9.64003 29.22C9.74003 29.43 9.78003 29.8 9.78003 30.31V33.35H9.80003Z" fill="#606062"/>
<path d="M15.39 27.53L15.34 28.8H15.25C15.09 28.8 14.97 28.8 14.9 28.8C14.62 28.8 14.46 28.86 14.4 28.97C14.74 29.26 14.91 29.62 14.91 30.03C14.91 30.51 14.73 30.88 14.36 31.12C13.99 31.36 13.49 31.49 12.85 31.49C12.83 31.49 12.75 31.49 12.62 31.49C12.49 31.49 12.42 31.49 12.42 31.49C12.13 31.49 11.99 31.57 11.99 31.72C11.99 31.86 12.12 31.93 12.38 31.94L13.85 32.01C14.38 32.04 14.78 32.19 15.03 32.47C15.28 32.76 15.41 33.09 15.41 33.47C15.41 33.92 15.23 34.29 14.85 34.58C14.47 34.87 13.75 35.01 12.68 35.01C11.02 35.01 10.19 34.61 10.19 33.82C10.19 33.39 10.41 33.09 10.85 32.91C10.57 32.7 10.43 32.46 10.43 32.17C10.43 31.71 10.72 31.35 11.31 31.12C10.83 30.9 10.58 30.53 10.58 30.02C10.58 29.55 10.77 29.18 11.17 28.92C11.57 28.66 12.11 28.52 12.79 28.52C13.1 28.52 13.39 28.55 13.65 28.62C13.76 27.88 14.13 27.5 14.78 27.5C14.93 27.5 15.15 27.5 15.42 27.54L15.39 27.53ZM12.32 33.29H12.13C11.82 33.29 11.67 33.39 11.67 33.59C11.67 33.77 11.79 33.89 12.02 33.95C12.25 34 12.57 34.03 12.96 34.03C13.35 34.03 13.57 34 13.67 33.93C13.78 33.86 13.82 33.78 13.82 33.66C13.82 33.58 13.8 33.52 13.75 33.46C13.7 33.4 13.59 33.37 13.41 33.36L12.32 33.29ZM12.78 30.59C13.13 30.59 13.3 30.4 13.3 30.02C13.3 29.62 13.13 29.43 12.77 29.43C12.41 29.43 12.24 29.63 12.24 30.03C12.24 30.43 12.42 30.59 12.78 30.59Z" fill="#606062"/>
<path d="M17.66 26.79V28.27H15.87V26.79H17.66ZM17.66 28.61V33.35H15.87V28.6H17.66V28.61Z" fill="#606062"/>
<path d="M23.05 33.35H21.26V30.37C21.26 30.13 21.22 29.96 21.15 29.9C21.07 29.83 20.99 29.79 20.87 29.79C20.54 29.79 20.38 30.02 20.38 30.49V33.35H18.59V28.6H20.25V29.28C20.49 28.77 20.94 28.51 21.56 28.51C21.89 28.51 22.17 28.58 22.4 28.71C22.63 28.85 22.8 29.01 22.89 29.22C22.99 29.43 23.03 29.8 23.03 30.31V33.35H23.05Z" fill="#606062"/>
<path d="M27 31.65L28.67 31.77C28.57 32.23 28.32 32.64 27.92 32.97C27.51 33.3 26.96 33.46 26.28 33.46C25.51 33.46 24.9 33.23 24.45 32.77C24 32.31 23.76 31.74 23.76 31.05C23.76 30.36 23.98 29.74 24.44 29.25C24.89 28.76 25.49 28.52 26.25 28.52C27.01 28.52 27.57 28.75 28.02 29.21C28.47 29.67 28.7 30.3 28.7 31.09V31.36H25.65C25.65 31.66 25.71 31.88 25.8 32.03C25.89 32.18 26.08 32.24 26.35 32.24C26.72 32.24 26.95 32.04 27.02 31.65H27ZM26.88 30.42C26.88 30.1 26.81 29.88 26.7 29.77C26.58 29.66 26.43 29.61 26.26 29.61C25.84 29.61 25.62 29.88 25.62 30.42H26.88Z" fill="#606062"/>
<path d="M32.38 31.65L34.05 31.77C33.95 32.23 33.7 32.64 33.3 32.97C32.89 33.3 32.34 33.46 31.66 33.46C30.89 33.46 30.28 33.23 29.83 32.77C29.38 32.31 29.14 31.74 29.14 31.05C29.14 30.36 29.36 29.74 29.82 29.25C30.27 28.76 30.87 28.52 31.63 28.52C32.39 28.52 32.95 28.75 33.4 29.21C33.85 29.67 34.08 30.3 34.08 31.09V31.36H31.03C31.03 31.66 31.09 31.88 31.18 32.03C31.27 32.18 31.46 32.24 31.73 32.24C32.1 32.24 32.33 32.04 32.4 31.65H32.38ZM32.26 30.42C32.26 30.1 32.19 29.88 32.08 29.77C31.96 29.66 31.81 29.61 31.64 29.61C31.22 29.61 31 29.88 31 30.42H32.26Z" fill="#606062"/>
<path d="M36.46 33.35H34.75V28.6H36.24V29.58C36.41 28.87 36.81 28.51 37.43 28.51C37.49 28.51 37.57 28.51 37.69 28.53V30.19C37.56 30.16 37.45 30.14 37.35 30.14C36.76 30.14 36.46 30.49 36.46 31.17V33.34V33.35Z" fill="#606062"/>
<path d="M40.04 26.79V28.27H38.25V26.79H40.04ZM40.04 28.61V33.35H38.25V28.6H40.04V28.61Z" fill="#606062"/>
<path d="M45.43 33.35H43.64V30.37C43.64 30.13 43.6 29.96 43.53 29.9C43.45 29.83 43.37 29.79 43.25 29.79C42.92 29.79 42.76 30.02 42.76 30.49V33.35H40.97V28.6H42.63V29.28C42.87 28.77 43.32 28.51 43.94 28.51C44.27 28.51 44.55 28.58 44.78 28.71C45.01 28.84 45.18 29.01 45.27 29.22C45.37 29.43 45.41 29.8 45.41 30.31V33.35H45.43Z" fill="#606062"/>
<path d="M51.12 27.53L51.07 28.8H50.98C50.82 28.8 50.7 28.8 50.63 28.8C50.35 28.8 50.19 28.86 50.13 28.97C50.47 29.26 50.64 29.62 50.64 30.03C50.64 30.51 50.46 30.88 50.09 31.12C49.72 31.36 49.22 31.49 48.58 31.49C48.56 31.49 48.48 31.49 48.35 31.49C48.22 31.49 48.15 31.49 48.15 31.49C47.86 31.49 47.72 31.57 47.72 31.72C47.72 31.86 47.85 31.93 48.11 31.94L49.58 32.01C50.11 32.04 50.51 32.19 50.76 32.47C51.01 32.76 51.14 33.09 51.14 33.47C51.14 33.92 50.96 34.29 50.58 34.58C50.2 34.87 49.48 35.01 48.41 35.01C46.75 35.01 45.92 34.61 45.92 33.82C45.92 33.39 46.14 33.09 46.58 32.91C46.3 32.7 46.16 32.46 46.16 32.17C46.16 31.71 46.45 31.35 47.04 31.12C46.56 30.9 46.31 30.53 46.31 30.02C46.31 29.55 46.5 29.18 46.9 28.92C47.3 28.66 47.84 28.52 48.52 28.52C48.83 28.52 49.12 28.55 49.38 28.62C49.49 27.88 49.86 27.5 50.51 27.5C50.66 27.5 50.88 27.5 51.15 27.54L51.12 27.53ZM48.05 33.29H47.86C47.55 33.29 47.4 33.39 47.4 33.59C47.4 33.77 47.52 33.89 47.75 33.95C47.98 34 48.3 34.03 48.69 34.03C49.08 34.03 49.3 34 49.4 33.93C49.51 33.86 49.55 33.78 49.55 33.66C49.55 33.58 49.53 33.52 49.48 33.46C49.43 33.4 49.32 33.37 49.14 33.36L48.05 33.29ZM48.51 30.59C48.86 30.59 49.03 30.4 49.03 30.02C49.03 29.62 48.86 29.43 48.5 29.43C48.14 29.43 47.97 29.63 47.97 30.03C47.97 30.41 48.14 30.59 48.51 30.59Z" fill="#606062"/>
<path d="M58.49 33.35H56.79C56.75 33.15 56.72 32.93 56.72 32.68C56.4 33.19 55.91 33.44 55.25 33.44C54.71 33.44 54.31 33.3 54.04 33.02C53.77 32.73 53.63 32.4 53.63 32.04C53.63 31.54 53.85 31.13 54.29 30.82C54.73 30.51 55.51 30.33 56.62 30.26V30.15C56.62 29.94 56.57 29.8 56.48 29.73C56.39 29.66 56.26 29.62 56.07 29.62C55.65 29.62 55.42 29.79 55.38 30.14L53.75 29.99C53.98 29 54.77 28.5 56.13 28.5C56.5 28.5 56.83 28.54 57.14 28.62C57.45 28.7 57.69 28.81 57.87 28.98C58.05 29.14 58.17 29.31 58.23 29.49C58.29 29.67 58.33 30.02 58.33 30.53V32.42C58.33 32.78 58.37 33.09 58.47 33.34L58.49 33.35ZM56.63 31.13C55.87 31.22 55.49 31.47 55.49 31.89C55.49 32.18 55.64 32.31 55.94 32.31C56.13 32.31 56.3 32.25 56.43 32.14C56.57 32.02 56.63 31.76 56.63 31.36V31.13Z" fill="#606062"/>
<path d="M63.72 33.35H61.93V30.37C61.93 30.13 61.89 29.96 61.82 29.9C61.74 29.83 61.66 29.79 61.54 29.79C61.21 29.79 61.05 30.02 61.05 30.49V33.35H59.26V28.6H60.92V29.28C61.16 28.77 61.61 28.51 62.23 28.51C62.56 28.51 62.84 28.58 63.07 28.71C63.3 28.84 63.47 29.01 63.56 29.22C63.66 29.43 63.7 29.8 63.7 30.31V33.35H63.72Z" fill="#606062"/>
<path d="M69.12 33.35H67.44V32.72C67.19 33.2 66.78 33.44 66.21 33.44C65.69 33.44 65.25 33.23 64.93 32.8C64.6 32.38 64.44 31.75 64.44 30.94C64.44 30.18 64.6 29.57 64.93 29.13C65.26 28.69 65.69 28.45 66.23 28.45C66.68 28.45 67.05 28.63 67.35 28.99V26.97H69.11V33.34L69.12 33.35ZM67.35 30.3C67.35 29.88 67.19 29.66 66.85 29.66C66.62 29.66 66.46 29.8 66.39 30.07C66.31 30.34 66.28 30.67 66.28 31.06C66.28 31.83 66.46 32.21 66.84 32.21C66.98 32.21 67.1 32.15 67.21 32.03C67.31 31.9 67.36 31.72 67.36 31.47V30.3H67.35Z" fill="#606062"/>
<path d="M71.78 31.51L73.53 31.18C73.67 31.69 74.05 31.95 74.66 31.95C75.13 31.95 75.36 31.81 75.36 31.55C75.36 31.41 75.3 31.31 75.2 31.23C75.09 31.15 74.89 31.09 74.61 31.03C73.54 30.82 72.85 30.54 72.54 30.19C72.23 29.84 72.09 29.44 72.09 28.97C72.09 28.37 72.31 27.87 72.75 27.47C73.19 27.07 73.82 26.87 74.64 26.87C75.89 26.87 76.71 27.39 77.11 28.43L75.56 28.92C75.4 28.5 75.07 28.28 74.58 28.28C74.17 28.28 73.96 28.42 73.96 28.68C73.96 28.8 74.01 28.89 74.1 28.96C74.2 29.03 74.37 29.09 74.64 29.14C75.37 29.3 75.89 29.44 76.2 29.56C76.51 29.68 76.76 29.9 76.97 30.2C77.17 30.5 77.28 30.86 77.28 31.26C77.28 31.91 77.03 32.43 76.53 32.82C76.03 33.21 75.37 33.42 74.55 33.42C73.05 33.42 72.14 32.77 71.79 31.48L71.78 31.51Z" fill="#606062"/>
<path d="M80.67 31.44L82.2 31.58C82.13 32.13 81.9 32.58 81.53 32.93C81.15 33.28 80.66 33.45 80.03 33.45C79.34 33.45 78.77 33.22 78.33 32.76C77.89 32.3 77.67 31.72 77.67 31C77.67 30.28 77.88 29.67 78.32 29.2C78.75 28.73 79.31 28.5 80 28.5C80.61 28.5 81.11 28.67 81.5 29.03C81.89 29.39 82.11 29.84 82.17 30.38L80.61 30.52C80.54 30.02 80.36 29.77 80.06 29.77C79.87 29.77 79.73 29.86 79.64 30.04C79.55 30.22 79.5 30.54 79.5 30.99C79.5 31.38 79.55 31.67 79.64 31.85C79.73 32.03 79.88 32.13 80.1 32.13C80.42 32.15 80.61 31.92 80.67 31.44Z" fill="#606062"/>
<path d="M84.51 26.79V28.27H82.72V26.79H84.51ZM84.51 28.61V33.35H82.72V28.6H84.51V28.61Z" fill="#606062"/>
<path d="M88.46 31.65L90.13 31.77C90.03 32.23 89.78 32.64 89.38 32.97C88.98 33.3 88.42 33.46 87.74 33.46C86.97 33.46 86.36 33.23 85.91 32.77C85.46 32.31 85.22 31.74 85.22 31.05C85.22 30.36 85.44 29.74 85.9 29.25C86.35 28.76 86.95 28.52 87.71 28.52C88.47 28.52 89.03 28.75 89.48 29.21C89.93 29.67 90.16 30.3 90.16 31.09V31.36H87.11C87.11 31.66 87.17 31.88 87.26 32.03C87.35 32.18 87.54 32.24 87.81 32.24C88.19 32.24 88.41 32.04 88.48 31.65H88.46ZM88.34 30.42C88.34 30.1 88.27 29.88 88.16 29.77C88.05 29.66 87.89 29.61 87.72 29.61C87.3 29.61 87.08 29.88 87.08 30.42H88.34Z" fill="#606062"/>
<path d="M95.29 33.35H93.5V30.37C93.5 30.13 93.46 29.96 93.39 29.9C93.31 29.83 93.23 29.79 93.11 29.79C92.78 29.79 92.62 30.02 92.62 30.49V33.35H90.83V28.6H92.49V29.28C92.73 28.77 93.18 28.51 93.8 28.51C94.13 28.51 94.41 28.58 94.64 28.71C94.87 28.85 95.04 29.01 95.13 29.22C95.23 29.43 95.27 29.8 95.27 30.31V33.35H95.29Z" fill="#606062"/>
<path d="M98.97 31.44L100.5 31.58C100.43 32.13 100.2 32.58 99.83 32.93C99.45 33.28 98.96 33.45 98.33 33.45C97.64 33.45 97.07 33.22 96.63 32.76C96.19 32.3 95.97 31.72 95.97 31C95.97 30.28 96.18 29.67 96.62 29.2C97.05 28.73 97.61 28.5 98.3 28.5C98.91 28.5 99.41 28.67 99.8 29.03C100.19 29.39 100.41 29.84 100.47 30.38L98.91 30.52C98.84 30.02 98.66 29.77 98.36 29.77C98.17 29.77 98.03 29.86 97.94 30.04C97.85 30.22 97.8 30.54 97.8 30.99C97.8 31.38 97.85 31.67 97.94 31.85C98.03 32.03 98.18 32.13 98.4 32.13C98.72 32.15 98.91 31.92 98.97 31.44Z" fill="#606062"/>
<path d="M104.04 31.65L105.71 31.77C105.61 32.23 105.36 32.64 104.96 32.97C104.55 33.3 104 33.46 103.32 33.46C102.55 33.46 101.94 33.23 101.49 32.77C101.04 32.31 100.8 31.74 100.8 31.05C100.8 30.36 101.02 29.74 101.48 29.25C101.93 28.76 102.53 28.52 103.29 28.52C104.05 28.52 104.61 28.75 105.06 29.21C105.51 29.67 105.74 30.3 105.74 31.09V31.36H102.69C102.69 31.66 102.75 31.88 102.84 32.03C102.93 32.18 103.12 32.24 103.39 32.24C103.76 32.24 103.98 32.04 104.06 31.65H104.04ZM103.91 30.42C103.91 30.1 103.84 29.88 103.73 29.77C103.61 29.66 103.46 29.61 103.29 29.61C102.87 29.61 102.65 29.88 102.65 30.42H103.91Z" fill="#606062"/>
<path d="M108.05 31.66V33.22L107.07 34.99H106.37L107.07 33.35H106.35V31.66H108.06H108.05Z" fill="#606062"/>
<path d="M113.16 26.98V33.35H111.28V26.98H113.16Z" fill="#606062"/>
<path d="M118.62 33.35H116.83V30.37C116.83 30.13 116.79 29.96 116.72 29.9C116.64 29.83 116.56 29.79 116.44 29.79C116.11 29.79 115.95 30.02 115.95 30.49V33.35H114.16V28.6H115.82V29.28C116.06 28.77 116.51 28.51 117.13 28.51C117.46 28.51 117.74 28.58 117.97 28.71C118.2 28.85 118.37 29.01 118.46 29.22C118.56 29.43 118.6 29.8 118.6 30.31V33.35H118.62Z" fill="#606062"/>
<path d="M122.3 31.44L123.83 31.58C123.76 32.13 123.53 32.58 123.16 32.93C122.78 33.28 122.29 33.45 121.66 33.45C120.97 33.45 120.4 33.22 119.96 32.76C119.52 32.3 119.3 31.72 119.3 31C119.3 30.28 119.51 29.67 119.95 29.2C120.38 28.73 120.94 28.5 121.63 28.5C122.24 28.5 122.74 28.67 123.13 29.03C123.52 29.39 123.74 29.84 123.8 30.38L122.24 30.52C122.17 30.02 121.99 29.77 121.69 29.77C121.5 29.77 121.36 29.86 121.27 30.04C121.18 30.22 121.13 30.54 121.13 30.99C121.13 31.38 121.18 31.67 121.27 31.85C121.36 32.03 121.51 32.13 121.73 32.13C122.05 32.15 122.24 31.92 122.3 31.44Z" fill="#606062"/>
<path d="M126 31.65V33.35H124.3V31.65H126Z" fill="#606062"/>
</svg>
