<svg width="73" height="32" viewBox="0 0 73 32" fill="none" xmlns="http://www.w3.org/2000/svg">
<path d="M0 32V0H5.36889C8.44444 0 9.63556 0.391111 10.88 1.77778C12.3733 3.55556 13.1378 6.15111 13.1378 9.68889C13.1378 16.2133 10.9333 19.2356 6.27556 19.2356H4.78222V32H0ZM5.76 14.88C7.73333 14.88 8.10667 14.0089 8.10667 9.6C8.10667 5.19111 7.68 4.08889 5.76 4.08889H4.8V14.88H5.76Z" fill="#005199"/>
<path d="M16.5511 32V0H21.3511V27.9289H27.3422V32H16.5511Z" fill="#005199"/>
<path d="M29.7955 32V0H34.5955V32H29.7955Z" fill="#005199"/>
<path d="M49.6 32L45.3333 17.8489C44.5156 15.2178 43.8044 12.3733 43.2711 9.79556L43.3244 10.4711C43.5733 16.2844 43.6089 18.1867 43.6622 21.6889V32H39.7333V0H43.7689L47.84 14.4C48.8 17.8133 49.28 19.5733 50.0089 22.7911C49.76 17.9378 49.76 17.7067 49.6178 11.3778V0H53.5111V32H49.6178H49.6Z" fill="#005199"/>
<path d="M67.6444 32L63.3244 16.9778V32H58.6667V0H63.3244V11.8044L67.5911 0H72.1422L66.2933 13.6178L72.6222 32H67.6267H67.6444Z" fill="#005199"/>
</svg>
