<svg width="112" height="32" viewBox="0 0 112 32" fill="none" xmlns="http://www.w3.org/2000/svg">
<g clip-path="url(#clip0_797_27362)">
<path d="M13.9378 32H0V29.6534C0 28.32 0.16 27.7867 0.782222 27.2534C1.54667 26.6134 2.68444 26.2756 4.23111 26.2756C7.07556 26.2756 8.39111 27.2356 8.39111 29.2622V29.9022H13.9556V32H13.9378ZM6.48889 29.4934C6.48889 28.64 6.11556 28.4622 4.19556 28.4622C2.27556 28.4622 1.79556 28.6578 1.79556 29.4934V29.92H6.50667V29.4934H6.48889Z" fill="#005299"/>
<path d="M13.9378 24.6934H0V22.5956H12.16V19.9822H13.9378V24.6934Z" fill="#005299"/>
<path d="M13.9378 18.8444H0V16.7466H13.9378V18.8444Z" fill="#005299"/>
<path d="M13.9378 10.1156L7.76889 11.9822C6.61333 12.3378 5.38667 12.6578 4.24889 12.8889H4.53333C7.05778 12.7644 7.89333 12.7467 9.42222 12.7289H13.92V14.4356H0V12.6756L6.27556 10.8978C7.75111 10.4889 8.53333 10.2756 9.93778 9.95556C7.82222 10.0622 7.71556 10.0622 4.96 10.1156H0V8.42667H13.9378V10.1156Z" fill="#005299"/>
<path d="M13.9378 2.16889L7.39556 4.05333H13.9378V6.08H0V4.05333H5.13778L0 2.20444V0.213333L5.93778 2.75556L13.9378 0V2.16889Z" fill="#005299"/>
<path d="M112 0H16V32H112V0Z" fill="#696E76"/>
<path d="M23.2356 29.8844V5.65332H20.16V2.11554H30.4V5.65332H27.3956V29.8844H23.2356Z" fill="white"/>
<path d="M32.9778 29.8844V2.11554H42.4356V5.65332H37.1378V13.5644H40.9778V17.1022H37.1378V26.3466H42.8089V29.8844H32.9778Z" fill="white"/>
<path d="M49.0133 23.0933C49.1022 25.7955 49.5111 26.72 50.8089 26.72C52.0178 26.72 52.6044 25.4755 52.6044 22.7555C52.6044 21.0844 52.32 20 51.5556 19.0044C51.2 18.5304 50.3407 17.7126 48.9778 16.5511C46.7378 14.6844 45.5111 12.0178 45.5111 8.97777C45.5111 4.3911 47.4667 1.77777 50.88 1.77777C54.0444 1.77777 55.9111 3.89333 56.2133 7.85777L52.3733 8.35555C52.16 6.06222 51.7867 5.27999 50.9156 5.27999C50.0444 5.27999 49.6178 6.32888 49.6178 8.60444C49.6178 10.6489 50.1689 11.6089 52.3733 13.4755C55.6622 16.3022 56.7111 18.3467 56.7111 22.0978C56.7111 27.4667 54.72 30.2222 50.7556 30.2222C47.1822 30.2222 45.0844 27.7689 45.1378 23.52L49.0133 23.1111V23.0933Z" fill="white"/>
<path d="M61.3867 29.8844V5.65332H58.3111V2.11554H68.5511V5.65332H65.5467V29.8844H61.3867Z" fill="white"/>
<path d="M71.1467 29.8844V2.11554H75.3067V29.9022H71.1467V29.8844Z" fill="white"/>
<path d="M88.3556 29.8844L84.6578 17.6C83.9467 15.3066 83.3244 12.8533 82.8622 10.5955L82.8978 11.1822C83.1111 16.2133 83.1467 17.8844 83.1822 20.9244V29.8844H79.7689V2.11554H83.2711L86.8089 14.6133C87.6445 17.5644 88.0533 19.1111 88.6756 21.9022C88.4622 17.6889 88.4622 17.4933 88.3378 11.9822V2.11554H91.7156V29.9022H88.3378L88.3556 29.8844Z" fill="white"/>
<path d="M105.138 30.0089L104.764 27.84C104.053 29.4578 103.022 30.1333 101.227 30.1333C96.9778 30.1333 95.4844 26.3467 95.4844 15.7689C95.4844 9.84888 95.8578 6.77333 96.8178 4.85333C97.9022 2.77333 99.52 1.77777 101.849 1.77777C105.351 1.77777 107.182 3.82222 107.84 8.53333L103.751 9.06666C103.538 6.48888 102.969 5.31555 101.831 5.31555C100.089 5.31555 99.7867 6.86222 99.7867 15.52C99.7867 25.0133 100.124 26.8978 101.956 26.8978C103.449 26.8978 103.964 25.5644 103.964 21.44V19.6444H101.956V15.9467H107.822V30.0267H105.12L105.138 30.0089Z" fill="white"/>
</g>
<defs>
<clipPath id="clip0_797_27362">
<rect width="112" height="32" fill="white"/>
</clipPath>
</defs>
</svg>
