<svg width="128" height="32" viewBox="0 0 128 32" fill="none" xmlns="http://www.w3.org/2000/svg">
<g clip-path="url(#clip0_797_27333)">
<path d="M13.9378 32H0V29.6533C0 28.32 0.16 27.7867 0.782222 27.2533C1.54667 26.6133 2.68444 26.2755 4.23111 26.2755C7.07556 26.2755 8.39111 27.2355 8.39111 29.2622V29.9022H13.9556V32H13.9378ZM6.48889 29.4933C6.48889 28.64 6.11556 28.4622 4.19556 28.4622C2.27556 28.4622 1.79556 28.6578 1.79556 29.4933V29.92H6.50667V29.4933H6.48889Z" fill="#005299"/>
<path d="M13.9378 24.6933H0V22.5955H12.16V19.9822H13.9378V24.6933Z" fill="#005299"/>
<path d="M13.9378 18.8445H0V16.7467H13.9378V18.8445Z" fill="#005299"/>
<path d="M13.9378 10.1156L7.76889 11.9822C6.61333 12.3378 5.38667 12.6578 4.24889 12.8889H4.53333C7.05778 12.7644 7.89333 12.7467 9.42222 12.7289H13.92V14.4356H0V12.6756L6.27556 10.8978C7.75111 10.4889 8.53333 10.2756 9.93778 9.95556C7.82222 10.0622 7.71556 10.0622 4.96 10.1156H0V8.42667H13.9378V10.1156Z" fill="#005299"/>
<path d="M13.9378 2.16889L7.39556 4.05333H13.9378V6.08H0V4.05333H5.13778L0 2.20444V0.213333L5.93778 2.75556L13.9378 0V2.16889Z" fill="#005299"/>
<path d="M128 0H16V32H128V0Z" fill="#F04C25"/>
<path d="M22.8089 29.9733V5.65333H19.7156V2.09778H29.9911V5.65333H26.9867V29.9556H22.8089V29.9733Z" fill="white"/>
<path d="M40.48 29.9733L37.8133 17.9911H36.7644V29.9733H32.5867V2.11557H37.4756C39.8222 2.11557 41.1911 2.70224 42.24 4.0889C43.3244 5.51113 43.8222 7.39557 43.8222 10.0978C43.8222 13.9378 43.0756 15.9822 41.3156 16.9956L44.7822 29.9911H40.48V29.9733ZM37.4756 14.3467C39.0222 14.3467 39.4311 13.4756 39.4311 10.0089C39.4311 6.54224 39.0578 5.67113 37.4756 5.67113H36.7644V14.3645H37.4756V14.3467Z" fill="white"/>
<path d="M55.6978 29.9733L54.7378 22.2933H51.36L50.5245 29.9733H46.8089L51.0756 2.11557H55.2178L59.6445 29.9733H55.7156H55.6978ZM53.7245 13.9733C53.6356 13.2622 53.5645 12.6045 53.4756 12.0178L53.1911 9.13779L52.9778 7.16446L52.8889 6.3289C52.8533 7.2889 52.8 7.62668 52.7289 8.37335C52.7289 8.71113 52.6045 9.95557 52.3911 12.1245L52.2311 13.9556L51.6445 18.88H54.3645L53.7422 13.9556L53.7245 13.9733Z" fill="white"/>
<path d="M62.3111 29.9733V2.11557H66.4889V29.9733H62.3111Z" fill="white"/>
<path d="M79.5556 29.9733L75.84 17.6533C75.1289 15.36 74.5067 12.8889 74.0445 10.6311L74.08 11.2178C74.2933 16.2667 74.3289 17.9378 74.3645 20.9956V29.9733H70.9333V2.11557H74.4356L77.9911 14.6489C78.8267 17.6178 79.2356 19.1645 79.8756 21.9556C79.6622 17.7422 79.6622 17.5289 79.5378 12.0178V2.11557H82.9156V29.9733H79.5378H79.5556Z" fill="white"/>
<path d="M87.4667 29.9733V2.11557H91.6444V29.9733H87.4667Z" fill="white"/>
<path d="M104.711 29.9733L100.996 17.6533C100.284 15.36 99.6622 12.8889 99.2 10.6311L99.2356 11.2178C99.4489 16.2667 99.4845 17.9378 99.52 20.9956V29.9733H96.0889V2.11557H99.5911L103.147 14.6489C103.982 17.6178 104.391 19.1645 105.031 21.9556C104.818 17.7422 104.818 17.5289 104.693 12.0178V2.11557H108.071V29.9733H104.693H104.711Z" fill="white"/>
<path d="M121.564 30.0978L121.191 27.9289C120.48 29.5645 119.431 30.2222 117.636 30.2222C113.369 30.2222 111.876 26.4178 111.876 15.8045C111.876 9.86668 112.249 6.77334 113.209 4.85334C114.293 2.77334 115.929 1.76001 118.258 1.76001C121.76 1.76001 123.609 3.80445 124.267 8.53334L120.178 9.06668C119.964 6.47112 119.378 5.31557 118.258 5.31557C116.498 5.31557 116.213 6.86223 116.213 15.5556C116.213 25.0845 116.551 26.9511 118.382 26.9511C119.893 26.9511 120.391 25.6178 120.391 21.4756V19.68H118.382V15.9645H124.267V30.08H121.547L121.564 30.0978Z" fill="white"/>
</g>
<defs>
<clipPath id="clip0_797_27333">
<rect width="128" height="32" fill="white"/>
</clipPath>
</defs>
</svg>
