<svg xmlns="http://www.w3.org/2000/svg" width="125" height="32" viewBox="0 0 125 32" fill="none">
  <g clip-path="url(#clip0_1379_461)">
    <path d="M93.8606 21.7932C94.4105 21.7932 94.8603 22.2431 94.8603 22.7929C94.8603 23.3427 94.4105 23.7926 93.8606 23.7926C93.3108 23.7926 92.861 23.3427 92.861 22.7929C92.861 22.2431 93.3108 21.7932 93.8606 21.7932ZM94.5604 22.8029C94.5604 22.343 94.2705 22.0531 93.8706 22.0531C93.4708 22.0531 93.1809 22.343 93.1809 22.8029C93.1809 23.2628 93.4708 23.5527 93.8706 23.5527C94.2705 23.5527 94.5604 23.2628 94.5604 22.8029ZM93.4608 22.2631H93.8706C94.1606 22.2631 94.3305 22.333 94.3305 22.593C94.3305 22.7929 94.2105 22.8729 94.0406 22.8829L94.3205 23.3527H94.0606L93.8207 22.9029H93.7307V23.3527H93.4908V22.2731L93.4608 22.2631ZM93.7007 22.7029H93.9106C94.0106 22.7029 94.0606 22.6729 94.0606 22.563C94.0606 22.453 94.0006 22.443 93.9106 22.443H93.7007V22.7029Z" fill="#606161"/>
    <path d="M0 0H7.27773C8.86723 0 10.0469 0.469853 10.8466 1.41956C11.6364 2.36926 12.0362 3.71884 12.0362 5.46829C12.0362 7.21774 11.6064 8.67729 10.7466 9.68697C9.88691 10.6967 8.57732 11.2065 6.80787 11.2065H4.40862V17.8144H0V0ZM4.39863 7.58763H5.47829C6.32802 7.58763 6.91784 7.39769 7.25773 7.0378C7.59763 6.67791 7.76757 6.19806 7.76757 5.62824C7.76757 5.05842 7.61762 4.59856 7.32771 4.20868C7.0278 3.81881 6.46798 3.62887 5.65823 3.62887H4.40862V7.60762L4.39863 7.58763Z" fill="#005299"/>
    <path d="M20.4036 14.8754H15.4352L14.7454 17.8144H10.2768L15.5951 0H20.3736L25.702 17.8144H21.1134L20.4036 14.8754ZM19.4939 11.0166L17.9344 4.61856L16.3849 11.0166H19.4939Z" fill="#005299"/>
    <path d="M26.2818 17.8144V0H33.5795C34.9291 0 35.9688 0.149953 36.6885 0.439863C37.4083 0.729772 37.9781 1.2696 38.418 2.05936C38.8579 2.84911 39.0778 3.80881 39.0778 4.94845C39.0778 5.93814 38.9078 6.78788 38.5779 7.50765C38.248 8.22743 37.7782 8.80725 37.1884 9.24711C36.8185 9.52702 36.2987 9.76695 35.6489 9.95689C36.1687 10.1768 36.5486 10.3968 36.7885 10.6067C36.9485 10.7566 37.1884 11.0665 37.4883 11.5464C37.7982 12.0262 37.9981 12.3961 38.0981 12.656L40.2174 17.8144H35.269L32.9297 12.3761C32.6298 11.6664 32.3699 11.2165 32.14 11.0066C31.8201 10.7266 31.4702 10.5967 31.0603 10.5967H30.6704V17.8244H26.2718L26.2818 17.8144ZM30.6804 7.21774H32.5298C32.7298 7.21774 33.1196 7.13777 33.6895 6.97782C33.9794 6.90784 34.2193 6.7179 34.3992 6.41799C34.5792 6.11809 34.6792 5.7682 34.6792 5.38832C34.6792 4.81849 34.5392 4.36864 34.2493 4.06873C33.9594 3.76882 33.4096 3.60887 32.6198 3.60887H30.6904V7.22774L30.6804 7.21774Z" fill="#005299"/>
    <path d="M39.4377 0H52.7435V4.39863H48.2749V17.8144H43.8963V4.39863H39.4277V0H39.4377Z" fill="#005299"/>
    <path d="M53.3833 0H57.472L62.8104 9.85692V0H66.9391V17.8144H62.8104L57.502 8.03749V17.8144H53.3833V0Z" fill="#005299"/>
    <path d="M68.0087 0H79.7451V3.79881H72.3974V6.62793H79.2152V10.2568H72.3974V13.7657H79.955V17.7944H68.0087V0Z" fill="#005299"/>
    <path d="M80.9247 17.8144V0H88.2224C89.572 0 90.6117 0.149953 91.3315 0.439863C92.0513 0.729772 92.6211 1.2696 93.0609 2.05936C93.5008 2.84911 93.7207 3.80881 93.7207 4.94845C93.7207 5.93814 93.5508 6.78788 93.2209 7.50765C92.891 8.22743 92.4211 8.80725 91.8313 9.24711C91.4614 9.52702 90.9416 9.76695 90.2918 9.95689C90.8116 10.1768 91.1915 10.3968 91.4314 10.6067C91.5914 10.7566 91.8313 11.0665 92.1312 11.5464C92.4411 12.0262 92.6411 12.3961 92.741 12.656L94.8604 17.8144H89.9119L87.5726 12.3761C87.2727 11.6664 87.0128 11.2165 86.7829 11.0066C86.463 10.7266 86.1131 10.5967 85.7032 10.5967H85.3134V17.8244H80.9147L80.9247 17.8144ZM85.3234 7.21774H87.1728C87.3727 7.21774 87.7626 7.13777 88.3324 6.97782C88.6223 6.90784 88.8622 6.7179 89.0422 6.41799C89.2221 6.11809 89.3221 5.7682 89.3221 5.38832C89.3221 4.81849 89.1821 4.36864 88.8922 4.06873C88.6023 3.76882 88.0525 3.60887 87.2627 3.60887H85.3334V7.22774L85.3234 7.21774Z" fill="#005299"/>
    <path d="M43.9563 27.0215L45.0159 26.7816C45.4458 28.0612 46.3655 28.701 47.7951 28.701C48.5348 28.701 49.0947 28.5411 49.4745 28.2312C49.8544 27.9113 50.0344 27.4914 50.0344 26.9616C50.0344 26.5617 49.8944 26.2418 49.6045 25.9919C49.3146 25.7519 48.9847 25.582 48.6148 25.492L46.7354 25.0322C46.2456 24.9122 45.8557 24.7623 45.5458 24.5823C45.2359 24.4024 44.9759 24.1325 44.756 23.7626C44.5361 23.3927 44.4361 22.9728 44.4361 22.503C44.4361 21.7232 44.736 21.0934 45.3258 20.6235C45.9157 20.1537 46.6754 19.9238 47.6051 19.9238C49.3146 19.9238 50.4342 20.6935 50.9641 22.243L49.8944 22.5629C49.7744 22.0131 49.4745 21.5932 49.0247 21.3133C48.5748 21.0334 48.075 20.8835 47.5551 20.8835C47.0353 20.8835 46.5854 21.0234 46.1856 21.2933C45.7857 21.5633 45.5858 21.9431 45.5858 22.453C45.5858 23.1528 46.0956 23.6226 47.1053 23.8625L48.8647 24.2724C50.4742 24.6623 51.274 25.522 51.274 26.8616C51.274 27.6713 50.9741 28.3511 50.3743 28.891C49.7744 29.4308 48.9247 29.7007 47.8251 29.7007C45.8757 29.7007 44.5961 28.811 43.9663 27.0215H43.9563Z" fill="#606161"/>
    <path d="M54.0331 20.1037V21.3034H52.8735V20.1037H54.0331ZM53.9931 22.553V29.5008H52.9135V22.553H53.9931Z" fill="#606161"/>
    <path d="M59.3015 28.761V29.6207C58.9216 29.6707 58.5917 29.7007 58.3118 29.7007C56.9722 29.7007 56.2924 29.0009 56.2924 27.5913V23.4026H55.0628V22.5529H56.2924L56.3424 20.8035L57.3421 20.7035V22.5429H58.9016V23.3927H57.3421V27.7613C57.3421 28.4811 57.712 28.841 58.4517 28.841C58.7017 28.841 58.9816 28.821 59.2915 28.761H59.3015Z" fill="#606161"/>
    <path d="M64.8397 27.4314L65.8394 27.6413C65.6595 28.2312 65.2996 28.721 64.7598 29.1109C64.2199 29.5008 63.6001 29.6907 62.8804 29.6907C61.9306 29.6907 61.1609 29.3608 60.5711 28.691C59.9813 28.0212 59.6913 27.1515 59.6913 26.0618C59.6913 24.9722 60.0013 24.0625 60.6111 23.3727C61.2209 22.6829 61.9906 22.353 62.9103 22.353C63.8301 22.353 64.5498 22.6729 65.0997 23.2927C65.6495 23.9225 65.9394 24.8622 65.9494 26.1118H60.901C60.901 27.1615 61.1209 27.8713 61.5608 28.2412C62.0006 28.611 62.4705 28.791 62.9603 28.791C63.84 28.791 64.4699 28.3311 64.8297 27.4214L64.8397 27.4314ZM64.7698 25.3121C64.7698 24.9222 64.6998 24.5723 64.5798 24.2724C64.4599 23.9725 64.2599 23.7126 63.97 23.5026C63.6901 23.2827 63.3402 23.1827 62.9403 23.1827C62.4005 23.1827 61.9506 23.3727 61.5708 23.7626C61.2009 24.1524 60.9909 24.6623 60.941 25.3221H64.7598L64.7698 25.3121Z" fill="#606161"/>
    <path d="M73.2271 28.4711V29.5008H67.6788V20.1037H68.8785V28.4611H73.2171L73.2271 28.4711Z" fill="#606161"/>
    <path d="M78.6154 22.5529L75.8263 30.3205C75.4164 31.4401 74.7766 32 73.8869 32C73.607 32 73.2971 31.95 72.9572 31.86V31.0103C73.2371 31.0703 73.477 31.1102 73.677 31.1102C74.0169 31.1102 74.3068 31.0103 74.5367 30.8103C74.7666 30.6104 74.9966 30.1305 75.2265 29.3708L72.8272 22.5629H73.9269L75.7963 27.7813L77.6957 22.5629H78.6054L78.6154 22.5529Z" fill="#606161"/>
    <path d="M85.1734 29.5008H84.1637V25.0322C84.1637 24.3924 84.0237 23.9425 83.7438 23.6726C83.4639 23.4127 83.124 23.2827 82.7241 23.2827C82.1743 23.2827 81.7144 23.5026 81.3346 23.9425C80.9647 24.3824 80.7747 24.9622 80.7747 25.682V29.4908H79.6951V22.5429H80.6948V23.8225C81.2546 22.8428 81.9943 22.353 82.8941 22.353C83.4139 22.353 83.8538 22.483 84.2137 22.7529C84.5735 23.0228 84.8335 23.3227 84.9634 23.6526C85.0934 23.9825 85.1734 24.5923 85.1734 25.472V29.4908V29.5008Z" fill="#606161"/>
    <path d="M92.1812 29.5007H90.9316L89.1721 26.6816L87.3627 29.5007H86.303L88.6423 25.8919L86.5229 22.5529H87.7726L89.2521 24.9222L90.7716 22.5529H91.8113L89.7919 25.6619L92.1712 29.5007H92.1812Z" fill="#606161"/>
    <path d="M110.336 0H101.048L115.434 14.8454L101.048 29.7007H110.206L124.611 14.7854L110.336 0Z" fill="#005299"/>
  </g>
  <defs>
    <clipPath id="clip0_1379_461">
      <rect width="125" height="32" fill="white"/>
    </clipPath>
  </defs>
</svg>